%TF.GenerationSoftware,KiCad,Pcbnew,7.0.6*%
%TF.CreationDate,2023-08-06T17:13:19+10:00*%
%TF.ProjectId,single-key-keyboard,73696e67-6c65-42d6-9b65-792d6b657962,rev?*%
%TF.SameCoordinates,Original*%
%TF.FileFunction,Soldermask,Top*%
%TF.FilePolarity,Negative*%
%FSLAX46Y46*%
G04 Gerber Fmt 4.6, Leading zero omitted, Abs format (unit mm)*
G04 Created by KiCad (PCBNEW 7.0.6) date 2023-08-06 17:13:19*
%MOMM*%
%LPD*%
G01*
G04 APERTURE LIST*
G04 Aperture macros list*
%AMRoundRect*
0 Rectangle with rounded corners*
0 $1 Rounding radius*
0 $2 $3 $4 $5 $6 $7 $8 $9 X,Y pos of 4 corners*
0 Add a 4 corners polygon primitive as box body*
4,1,4,$2,$3,$4,$5,$6,$7,$8,$9,$2,$3,0*
0 Add four circle primitives for the rounded corners*
1,1,$1+$1,$2,$3*
1,1,$1+$1,$4,$5*
1,1,$1+$1,$6,$7*
1,1,$1+$1,$8,$9*
0 Add four rect primitives between the rounded corners*
20,1,$1+$1,$2,$3,$4,$5,0*
20,1,$1+$1,$4,$5,$6,$7,0*
20,1,$1+$1,$6,$7,$8,$9,0*
20,1,$1+$1,$8,$9,$2,$3,0*%
G04 Aperture macros list end*
%ADD10R,1.700000X1.700000*%
%ADD11O,1.700000X1.700000*%
%ADD12R,2.550000X2.500000*%
%ADD13C,3.000000*%
%ADD14C,2.286000*%
%ADD15C,3.987800*%
%ADD16C,1.701800*%
%ADD17C,0.700000*%
%ADD18O,1.200000X2.000000*%
%ADD19O,1.200000X1.800000*%
%ADD20R,0.300000X1.300000*%
%ADD21RoundRect,0.062500X-0.362500X-0.062500X0.362500X-0.062500X0.362500X0.062500X-0.362500X0.062500X0*%
%ADD22RoundRect,0.062500X-0.062500X-0.362500X0.062500X-0.362500X0.062500X0.362500X-0.062500X0.362500X0*%
%ADD23R,2.600000X2.600000*%
%ADD24RoundRect,0.135000X0.135000X0.185000X-0.135000X0.185000X-0.135000X-0.185000X0.135000X-0.185000X0*%
%ADD25R,0.400000X0.480000*%
%ADD26RoundRect,0.112500X-0.112500X0.187500X-0.112500X-0.187500X0.112500X-0.187500X0.112500X0.187500X0*%
G04 APERTURE END LIST*
D10*
%TO.C,TP7*%
X151130000Y-97790000D03*
D11*
X151130000Y-100330000D03*
%TD*%
D10*
%TO.C,TP5*%
X139700000Y-88900000D03*
D11*
X142240000Y-88900000D03*
%TD*%
D10*
%TO.C,TP1*%
X130810000Y-97790000D03*
D11*
X130810000Y-100330000D03*
%TD*%
D10*
%TO.C,TP4*%
X151130000Y-124460000D03*
D11*
X151130000Y-127000000D03*
%TD*%
D10*
%TO.C,TP3*%
X130810000Y-124460000D03*
D11*
X130810000Y-127000000D03*
%TD*%
D10*
%TO.C,TP2*%
X139440000Y-115570000D03*
D11*
X141980000Y-115570000D03*
%TD*%
D12*
%TO.C,SW1*%
X147280000Y-104140000D03*
D13*
X143530000Y-104140000D03*
X137180000Y-101600000D03*
D14*
X138450000Y-93980000D03*
D15*
X140990000Y-99060000D03*
D14*
X144800000Y-96520000D03*
D16*
X135910000Y-99060000D03*
X146070000Y-99060000D03*
D12*
X133430000Y-101600000D03*
%TD*%
D17*
%TO.C,P1*%
X143540000Y-132115000D03*
X137760000Y-132115000D03*
D18*
X136330000Y-131585000D03*
X144970000Y-131585000D03*
D19*
X136330000Y-135765000D03*
X144970000Y-135765000D03*
D20*
X137300000Y-130935000D03*
X138100000Y-130935000D03*
X139400000Y-130935000D03*
X140400000Y-130935000D03*
X140900000Y-130935000D03*
X141900000Y-130935000D03*
X143200000Y-130935000D03*
X144000000Y-130935000D03*
X143700000Y-130935000D03*
X142900000Y-130935000D03*
X142400000Y-130935000D03*
X141400000Y-130935000D03*
X139900000Y-130935000D03*
X138900000Y-130935000D03*
X138400000Y-130935000D03*
X137600000Y-130935000D03*
%TD*%
D21*
%TO.C,U1*%
X139045000Y-120920000D03*
X139045000Y-121420000D03*
X139045000Y-121920000D03*
X139045000Y-122420000D03*
X139045000Y-122920000D03*
D22*
X139970000Y-123845000D03*
X140470000Y-123845000D03*
X140970000Y-123845000D03*
X141470000Y-123845000D03*
X141970000Y-123845000D03*
D21*
X142895000Y-122920000D03*
X142895000Y-122420000D03*
X142895000Y-121920000D03*
X142895000Y-121420000D03*
X142895000Y-120920000D03*
D22*
X141970000Y-119995000D03*
X141470000Y-119995000D03*
X140970000Y-119995000D03*
X140470000Y-119995000D03*
X139970000Y-119995000D03*
D23*
X140970000Y-121920000D03*
%TD*%
D24*
%TO.C,R2*%
X143910000Y-126300000D03*
X142890000Y-126300000D03*
%TD*%
%TO.C,R1*%
X143890000Y-127350000D03*
X142870000Y-127350000D03*
%TD*%
D25*
%TO.C,D4*%
X137330000Y-125860000D03*
X137330000Y-127180000D03*
%TD*%
%TO.C,D3*%
X141340000Y-125760000D03*
X141340000Y-127080000D03*
%TD*%
D26*
%TO.C,D2*%
X139290000Y-125280000D03*
X139290000Y-127380000D03*
%TD*%
D25*
%TO.C,D1*%
X137260000Y-122840000D03*
X137260000Y-124160000D03*
%TD*%
M02*
