%TF.GenerationSoftware,KiCad,Pcbnew,7.0.6*%
%TF.CreationDate,2023-08-06T17:13:19+10:00*%
%TF.ProjectId,single-key-keyboard,73696e67-6c65-42d6-9b65-792d6b657962,rev?*%
%TF.SameCoordinates,Original*%
%TF.FileFunction,Legend,Top*%
%TF.FilePolarity,Positive*%
%FSLAX46Y46*%
G04 Gerber Fmt 4.6, Leading zero omitted, Abs format (unit mm)*
G04 Created by KiCad (PCBNEW 7.0.6) date 2023-08-06 17:13:19*
%MOMM*%
%LPD*%
G01*
G04 APERTURE LIST*
G04 Aperture macros list*
%AMRoundRect*
0 Rectangle with rounded corners*
0 $1 Rounding radius*
0 $2 $3 $4 $5 $6 $7 $8 $9 X,Y pos of 4 corners*
0 Add a 4 corners polygon primitive as box body*
4,1,4,$2,$3,$4,$5,$6,$7,$8,$9,$2,$3,0*
0 Add four circle primitives for the rounded corners*
1,1,$1+$1,$2,$3*
1,1,$1+$1,$4,$5*
1,1,$1+$1,$6,$7*
1,1,$1+$1,$8,$9*
0 Add four rect primitives between the rounded corners*
20,1,$1+$1,$2,$3,$4,$5,0*
20,1,$1+$1,$4,$5,$6,$7,0*
20,1,$1+$1,$6,$7,$8,$9,0*
20,1,$1+$1,$8,$9,$2,$3,0*%
G04 Aperture macros list end*
%ADD10C,0.150000*%
%ADD11C,0.254000*%
%ADD12C,0.120000*%
%ADD13C,0.100000*%
%ADD14R,1.700000X1.700000*%
%ADD15O,1.700000X1.700000*%
%ADD16R,2.550000X2.500000*%
%ADD17C,3.000000*%
%ADD18C,2.286000*%
%ADD19C,3.987800*%
%ADD20C,1.701800*%
%ADD21C,0.700000*%
%ADD22O,1.200000X2.000000*%
%ADD23O,1.200000X1.800000*%
%ADD24R,0.300000X1.300000*%
%ADD25RoundRect,0.062500X-0.362500X-0.062500X0.362500X-0.062500X0.362500X0.062500X-0.362500X0.062500X0*%
%ADD26RoundRect,0.062500X-0.062500X-0.362500X0.062500X-0.362500X0.062500X0.362500X-0.062500X0.362500X0*%
%ADD27R,2.600000X2.600000*%
%ADD28RoundRect,0.135000X0.135000X0.185000X-0.135000X0.185000X-0.135000X-0.185000X0.135000X-0.185000X0*%
%ADD29R,0.400000X0.480000*%
%ADD30RoundRect,0.112500X-0.112500X0.187500X-0.112500X-0.187500X0.112500X-0.187500X0.112500X0.187500X0*%
G04 APERTURE END LIST*
D10*
X149868095Y-94914819D02*
X150439523Y-94914819D01*
X150153809Y-95914819D02*
X150153809Y-94914819D01*
X150772857Y-95914819D02*
X150772857Y-94914819D01*
X150772857Y-94914819D02*
X151153809Y-94914819D01*
X151153809Y-94914819D02*
X151249047Y-94962438D01*
X151249047Y-94962438D02*
X151296666Y-95010057D01*
X151296666Y-95010057D02*
X151344285Y-95105295D01*
X151344285Y-95105295D02*
X151344285Y-95248152D01*
X151344285Y-95248152D02*
X151296666Y-95343390D01*
X151296666Y-95343390D02*
X151249047Y-95391009D01*
X151249047Y-95391009D02*
X151153809Y-95438628D01*
X151153809Y-95438628D02*
X150772857Y-95438628D01*
X151677619Y-94914819D02*
X152344285Y-94914819D01*
X152344285Y-94914819D02*
X151915714Y-95914819D01*
X136824819Y-90161904D02*
X136824819Y-89590476D01*
X137824819Y-89876190D02*
X136824819Y-89876190D01*
X137824819Y-89257142D02*
X136824819Y-89257142D01*
X136824819Y-89257142D02*
X136824819Y-88876190D01*
X136824819Y-88876190D02*
X136872438Y-88780952D01*
X136872438Y-88780952D02*
X136920057Y-88733333D01*
X136920057Y-88733333D02*
X137015295Y-88685714D01*
X137015295Y-88685714D02*
X137158152Y-88685714D01*
X137158152Y-88685714D02*
X137253390Y-88733333D01*
X137253390Y-88733333D02*
X137301009Y-88780952D01*
X137301009Y-88780952D02*
X137348628Y-88876190D01*
X137348628Y-88876190D02*
X137348628Y-89257142D01*
X136824819Y-87780952D02*
X136824819Y-88257142D01*
X136824819Y-88257142D02*
X137301009Y-88304761D01*
X137301009Y-88304761D02*
X137253390Y-88257142D01*
X137253390Y-88257142D02*
X137205771Y-88161904D01*
X137205771Y-88161904D02*
X137205771Y-87923809D01*
X137205771Y-87923809D02*
X137253390Y-87828571D01*
X137253390Y-87828571D02*
X137301009Y-87780952D01*
X137301009Y-87780952D02*
X137396247Y-87733333D01*
X137396247Y-87733333D02*
X137634342Y-87733333D01*
X137634342Y-87733333D02*
X137729580Y-87780952D01*
X137729580Y-87780952D02*
X137777200Y-87828571D01*
X137777200Y-87828571D02*
X137824819Y-87923809D01*
X137824819Y-87923809D02*
X137824819Y-88161904D01*
X137824819Y-88161904D02*
X137777200Y-88257142D01*
X137777200Y-88257142D02*
X137729580Y-88304761D01*
X129548095Y-94914819D02*
X130119523Y-94914819D01*
X129833809Y-95914819D02*
X129833809Y-94914819D01*
X130452857Y-95914819D02*
X130452857Y-94914819D01*
X130452857Y-94914819D02*
X130833809Y-94914819D01*
X130833809Y-94914819D02*
X130929047Y-94962438D01*
X130929047Y-94962438D02*
X130976666Y-95010057D01*
X130976666Y-95010057D02*
X131024285Y-95105295D01*
X131024285Y-95105295D02*
X131024285Y-95248152D01*
X131024285Y-95248152D02*
X130976666Y-95343390D01*
X130976666Y-95343390D02*
X130929047Y-95391009D01*
X130929047Y-95391009D02*
X130833809Y-95438628D01*
X130833809Y-95438628D02*
X130452857Y-95438628D01*
X131976666Y-95914819D02*
X131405238Y-95914819D01*
X131690952Y-95914819D02*
X131690952Y-94914819D01*
X131690952Y-94914819D02*
X131595714Y-95057676D01*
X131595714Y-95057676D02*
X131500476Y-95152914D01*
X131500476Y-95152914D02*
X131405238Y-95200533D01*
X149868095Y-121584819D02*
X150439523Y-121584819D01*
X150153809Y-122584819D02*
X150153809Y-121584819D01*
X150772857Y-122584819D02*
X150772857Y-121584819D01*
X150772857Y-121584819D02*
X151153809Y-121584819D01*
X151153809Y-121584819D02*
X151249047Y-121632438D01*
X151249047Y-121632438D02*
X151296666Y-121680057D01*
X151296666Y-121680057D02*
X151344285Y-121775295D01*
X151344285Y-121775295D02*
X151344285Y-121918152D01*
X151344285Y-121918152D02*
X151296666Y-122013390D01*
X151296666Y-122013390D02*
X151249047Y-122061009D01*
X151249047Y-122061009D02*
X151153809Y-122108628D01*
X151153809Y-122108628D02*
X150772857Y-122108628D01*
X152201428Y-121918152D02*
X152201428Y-122584819D01*
X151963333Y-121537200D02*
X151725238Y-122251485D01*
X151725238Y-122251485D02*
X152344285Y-122251485D01*
X129548095Y-121584819D02*
X130119523Y-121584819D01*
X129833809Y-122584819D02*
X129833809Y-121584819D01*
X130452857Y-122584819D02*
X130452857Y-121584819D01*
X130452857Y-121584819D02*
X130833809Y-121584819D01*
X130833809Y-121584819D02*
X130929047Y-121632438D01*
X130929047Y-121632438D02*
X130976666Y-121680057D01*
X130976666Y-121680057D02*
X131024285Y-121775295D01*
X131024285Y-121775295D02*
X131024285Y-121918152D01*
X131024285Y-121918152D02*
X130976666Y-122013390D01*
X130976666Y-122013390D02*
X130929047Y-122061009D01*
X130929047Y-122061009D02*
X130833809Y-122108628D01*
X130833809Y-122108628D02*
X130452857Y-122108628D01*
X131357619Y-121584819D02*
X131976666Y-121584819D01*
X131976666Y-121584819D02*
X131643333Y-121965771D01*
X131643333Y-121965771D02*
X131786190Y-121965771D01*
X131786190Y-121965771D02*
X131881428Y-122013390D01*
X131881428Y-122013390D02*
X131929047Y-122061009D01*
X131929047Y-122061009D02*
X131976666Y-122156247D01*
X131976666Y-122156247D02*
X131976666Y-122394342D01*
X131976666Y-122394342D02*
X131929047Y-122489580D01*
X131929047Y-122489580D02*
X131881428Y-122537200D01*
X131881428Y-122537200D02*
X131786190Y-122584819D01*
X131786190Y-122584819D02*
X131500476Y-122584819D01*
X131500476Y-122584819D02*
X131405238Y-122537200D01*
X131405238Y-122537200D02*
X131357619Y-122489580D01*
X136564819Y-116831904D02*
X136564819Y-116260476D01*
X137564819Y-116546190D02*
X136564819Y-116546190D01*
X137564819Y-115927142D02*
X136564819Y-115927142D01*
X136564819Y-115927142D02*
X136564819Y-115546190D01*
X136564819Y-115546190D02*
X136612438Y-115450952D01*
X136612438Y-115450952D02*
X136660057Y-115403333D01*
X136660057Y-115403333D02*
X136755295Y-115355714D01*
X136755295Y-115355714D02*
X136898152Y-115355714D01*
X136898152Y-115355714D02*
X136993390Y-115403333D01*
X136993390Y-115403333D02*
X137041009Y-115450952D01*
X137041009Y-115450952D02*
X137088628Y-115546190D01*
X137088628Y-115546190D02*
X137088628Y-115927142D01*
X136660057Y-114974761D02*
X136612438Y-114927142D01*
X136612438Y-114927142D02*
X136564819Y-114831904D01*
X136564819Y-114831904D02*
X136564819Y-114593809D01*
X136564819Y-114593809D02*
X136612438Y-114498571D01*
X136612438Y-114498571D02*
X136660057Y-114450952D01*
X136660057Y-114450952D02*
X136755295Y-114403333D01*
X136755295Y-114403333D02*
X136850533Y-114403333D01*
X136850533Y-114403333D02*
X136993390Y-114450952D01*
X136993390Y-114450952D02*
X137564819Y-115022380D01*
X137564819Y-115022380D02*
X137564819Y-114403333D01*
X135846667Y-107722200D02*
X135989524Y-107769819D01*
X135989524Y-107769819D02*
X136227619Y-107769819D01*
X136227619Y-107769819D02*
X136322857Y-107722200D01*
X136322857Y-107722200D02*
X136370476Y-107674580D01*
X136370476Y-107674580D02*
X136418095Y-107579342D01*
X136418095Y-107579342D02*
X136418095Y-107484104D01*
X136418095Y-107484104D02*
X136370476Y-107388866D01*
X136370476Y-107388866D02*
X136322857Y-107341247D01*
X136322857Y-107341247D02*
X136227619Y-107293628D01*
X136227619Y-107293628D02*
X136037143Y-107246009D01*
X136037143Y-107246009D02*
X135941905Y-107198390D01*
X135941905Y-107198390D02*
X135894286Y-107150771D01*
X135894286Y-107150771D02*
X135846667Y-107055533D01*
X135846667Y-107055533D02*
X135846667Y-106960295D01*
X135846667Y-106960295D02*
X135894286Y-106865057D01*
X135894286Y-106865057D02*
X135941905Y-106817438D01*
X135941905Y-106817438D02*
X136037143Y-106769819D01*
X136037143Y-106769819D02*
X136275238Y-106769819D01*
X136275238Y-106769819D02*
X136418095Y-106817438D01*
X136751429Y-106769819D02*
X136989524Y-107769819D01*
X136989524Y-107769819D02*
X137180000Y-107055533D01*
X137180000Y-107055533D02*
X137370476Y-107769819D01*
X137370476Y-107769819D02*
X137608572Y-106769819D01*
X138513333Y-107769819D02*
X137941905Y-107769819D01*
X138227619Y-107769819D02*
X138227619Y-106769819D01*
X138227619Y-106769819D02*
X138132381Y-106912676D01*
X138132381Y-106912676D02*
X138037143Y-107007914D01*
X138037143Y-107007914D02*
X137941905Y-107055533D01*
X139712618Y-129594726D02*
X139712618Y-128324726D01*
X139712618Y-128324726D02*
X140196428Y-128324726D01*
X140196428Y-128324726D02*
X140317380Y-128385202D01*
X140317380Y-128385202D02*
X140377857Y-128445678D01*
X140377857Y-128445678D02*
X140438333Y-128566630D01*
X140438333Y-128566630D02*
X140438333Y-128748059D01*
X140438333Y-128748059D02*
X140377857Y-128869011D01*
X140377857Y-128869011D02*
X140317380Y-128929488D01*
X140317380Y-128929488D02*
X140196428Y-128989964D01*
X140196428Y-128989964D02*
X139712618Y-128989964D01*
X141647857Y-129594726D02*
X140922142Y-129594726D01*
X141284999Y-129594726D02*
X141284999Y-128324726D01*
X141284999Y-128324726D02*
X141164047Y-128506154D01*
X141164047Y-128506154D02*
X141043095Y-128627107D01*
X141043095Y-128627107D02*
X140922142Y-128687583D01*
X131427380Y-139136726D02*
X131427380Y-140164821D01*
X131427380Y-140164821D02*
X131487857Y-140285773D01*
X131487857Y-140285773D02*
X131548333Y-140346250D01*
X131548333Y-140346250D02*
X131669285Y-140406726D01*
X131669285Y-140406726D02*
X131911190Y-140406726D01*
X131911190Y-140406726D02*
X132032142Y-140346250D01*
X132032142Y-140346250D02*
X132092619Y-140285773D01*
X132092619Y-140285773D02*
X132153095Y-140164821D01*
X132153095Y-140164821D02*
X132153095Y-139136726D01*
X132697380Y-140346250D02*
X132878809Y-140406726D01*
X132878809Y-140406726D02*
X133181190Y-140406726D01*
X133181190Y-140406726D02*
X133302142Y-140346250D01*
X133302142Y-140346250D02*
X133362618Y-140285773D01*
X133362618Y-140285773D02*
X133423095Y-140164821D01*
X133423095Y-140164821D02*
X133423095Y-140043869D01*
X133423095Y-140043869D02*
X133362618Y-139922916D01*
X133362618Y-139922916D02*
X133302142Y-139862440D01*
X133302142Y-139862440D02*
X133181190Y-139801964D01*
X133181190Y-139801964D02*
X132939285Y-139741488D01*
X132939285Y-139741488D02*
X132818333Y-139681011D01*
X132818333Y-139681011D02*
X132757856Y-139620535D01*
X132757856Y-139620535D02*
X132697380Y-139499583D01*
X132697380Y-139499583D02*
X132697380Y-139378630D01*
X132697380Y-139378630D02*
X132757856Y-139257678D01*
X132757856Y-139257678D02*
X132818333Y-139197202D01*
X132818333Y-139197202D02*
X132939285Y-139136726D01*
X132939285Y-139136726D02*
X133241666Y-139136726D01*
X133241666Y-139136726D02*
X133423095Y-139197202D01*
X134390714Y-139741488D02*
X134572142Y-139801964D01*
X134572142Y-139801964D02*
X134632619Y-139862440D01*
X134632619Y-139862440D02*
X134693095Y-139983392D01*
X134693095Y-139983392D02*
X134693095Y-140164821D01*
X134693095Y-140164821D02*
X134632619Y-140285773D01*
X134632619Y-140285773D02*
X134572142Y-140346250D01*
X134572142Y-140346250D02*
X134451190Y-140406726D01*
X134451190Y-140406726D02*
X133967380Y-140406726D01*
X133967380Y-140406726D02*
X133967380Y-139136726D01*
X133967380Y-139136726D02*
X134390714Y-139136726D01*
X134390714Y-139136726D02*
X134511666Y-139197202D01*
X134511666Y-139197202D02*
X134572142Y-139257678D01*
X134572142Y-139257678D02*
X134632619Y-139378630D01*
X134632619Y-139378630D02*
X134632619Y-139499583D01*
X134632619Y-139499583D02*
X134572142Y-139620535D01*
X134572142Y-139620535D02*
X134511666Y-139681011D01*
X134511666Y-139681011D02*
X134390714Y-139741488D01*
X134390714Y-139741488D02*
X133967380Y-139741488D01*
X134935000Y-140527678D02*
X135902619Y-140527678D01*
X136930714Y-140285773D02*
X136870238Y-140346250D01*
X136870238Y-140346250D02*
X136688809Y-140406726D01*
X136688809Y-140406726D02*
X136567857Y-140406726D01*
X136567857Y-140406726D02*
X136386428Y-140346250D01*
X136386428Y-140346250D02*
X136265476Y-140225297D01*
X136265476Y-140225297D02*
X136204999Y-140104345D01*
X136204999Y-140104345D02*
X136144523Y-139862440D01*
X136144523Y-139862440D02*
X136144523Y-139681011D01*
X136144523Y-139681011D02*
X136204999Y-139439107D01*
X136204999Y-139439107D02*
X136265476Y-139318154D01*
X136265476Y-139318154D02*
X136386428Y-139197202D01*
X136386428Y-139197202D02*
X136567857Y-139136726D01*
X136567857Y-139136726D02*
X136688809Y-139136726D01*
X136688809Y-139136726D02*
X136870238Y-139197202D01*
X136870238Y-139197202D02*
X136930714Y-139257678D01*
X137172619Y-140527678D02*
X138140238Y-140527678D01*
X138442618Y-140406726D02*
X138442618Y-139136726D01*
X138442618Y-139136726D02*
X138926428Y-139136726D01*
X138926428Y-139136726D02*
X139047380Y-139197202D01*
X139047380Y-139197202D02*
X139107857Y-139257678D01*
X139107857Y-139257678D02*
X139168333Y-139378630D01*
X139168333Y-139378630D02*
X139168333Y-139560059D01*
X139168333Y-139560059D02*
X139107857Y-139681011D01*
X139107857Y-139681011D02*
X139047380Y-139741488D01*
X139047380Y-139741488D02*
X138926428Y-139801964D01*
X138926428Y-139801964D02*
X138442618Y-139801964D01*
X139894047Y-140406726D02*
X139773095Y-140346250D01*
X139773095Y-140346250D02*
X139712618Y-140225297D01*
X139712618Y-140225297D02*
X139712618Y-139136726D01*
X140922142Y-139560059D02*
X140922142Y-140406726D01*
X140377856Y-139560059D02*
X140377856Y-140225297D01*
X140377856Y-140225297D02*
X140438333Y-140346250D01*
X140438333Y-140346250D02*
X140559285Y-140406726D01*
X140559285Y-140406726D02*
X140740714Y-140406726D01*
X140740714Y-140406726D02*
X140861666Y-140346250D01*
X140861666Y-140346250D02*
X140922142Y-140285773D01*
X142071190Y-139560059D02*
X142071190Y-140588154D01*
X142071190Y-140588154D02*
X142010714Y-140709107D01*
X142010714Y-140709107D02*
X141950238Y-140769583D01*
X141950238Y-140769583D02*
X141829285Y-140830059D01*
X141829285Y-140830059D02*
X141647857Y-140830059D01*
X141647857Y-140830059D02*
X141526904Y-140769583D01*
X142071190Y-140346250D02*
X141950238Y-140406726D01*
X141950238Y-140406726D02*
X141708333Y-140406726D01*
X141708333Y-140406726D02*
X141587381Y-140346250D01*
X141587381Y-140346250D02*
X141526904Y-140285773D01*
X141526904Y-140285773D02*
X141466428Y-140164821D01*
X141466428Y-140164821D02*
X141466428Y-139801964D01*
X141466428Y-139801964D02*
X141526904Y-139681011D01*
X141526904Y-139681011D02*
X141587381Y-139620535D01*
X141587381Y-139620535D02*
X141708333Y-139560059D01*
X141708333Y-139560059D02*
X141950238Y-139560059D01*
X141950238Y-139560059D02*
X142071190Y-139620535D01*
X142373572Y-140527678D02*
X143341191Y-140527678D01*
X143643571Y-139136726D02*
X143643571Y-140164821D01*
X143643571Y-140164821D02*
X143704048Y-140285773D01*
X143704048Y-140285773D02*
X143764524Y-140346250D01*
X143764524Y-140346250D02*
X143885476Y-140406726D01*
X143885476Y-140406726D02*
X144127381Y-140406726D01*
X144127381Y-140406726D02*
X144248333Y-140346250D01*
X144248333Y-140346250D02*
X144308810Y-140285773D01*
X144308810Y-140285773D02*
X144369286Y-140164821D01*
X144369286Y-140164821D02*
X144369286Y-139136726D01*
X144913571Y-140346250D02*
X145095000Y-140406726D01*
X145095000Y-140406726D02*
X145397381Y-140406726D01*
X145397381Y-140406726D02*
X145518333Y-140346250D01*
X145518333Y-140346250D02*
X145578809Y-140285773D01*
X145578809Y-140285773D02*
X145639286Y-140164821D01*
X145639286Y-140164821D02*
X145639286Y-140043869D01*
X145639286Y-140043869D02*
X145578809Y-139922916D01*
X145578809Y-139922916D02*
X145518333Y-139862440D01*
X145518333Y-139862440D02*
X145397381Y-139801964D01*
X145397381Y-139801964D02*
X145155476Y-139741488D01*
X145155476Y-139741488D02*
X145034524Y-139681011D01*
X145034524Y-139681011D02*
X144974047Y-139620535D01*
X144974047Y-139620535D02*
X144913571Y-139499583D01*
X144913571Y-139499583D02*
X144913571Y-139378630D01*
X144913571Y-139378630D02*
X144974047Y-139257678D01*
X144974047Y-139257678D02*
X145034524Y-139197202D01*
X145034524Y-139197202D02*
X145155476Y-139136726D01*
X145155476Y-139136726D02*
X145457857Y-139136726D01*
X145457857Y-139136726D02*
X145639286Y-139197202D01*
X146606905Y-139741488D02*
X146788333Y-139801964D01*
X146788333Y-139801964D02*
X146848810Y-139862440D01*
X146848810Y-139862440D02*
X146909286Y-139983392D01*
X146909286Y-139983392D02*
X146909286Y-140164821D01*
X146909286Y-140164821D02*
X146848810Y-140285773D01*
X146848810Y-140285773D02*
X146788333Y-140346250D01*
X146788333Y-140346250D02*
X146667381Y-140406726D01*
X146667381Y-140406726D02*
X146183571Y-140406726D01*
X146183571Y-140406726D02*
X146183571Y-139136726D01*
X146183571Y-139136726D02*
X146606905Y-139136726D01*
X146606905Y-139136726D02*
X146727857Y-139197202D01*
X146727857Y-139197202D02*
X146788333Y-139257678D01*
X146788333Y-139257678D02*
X146848810Y-139378630D01*
X146848810Y-139378630D02*
X146848810Y-139499583D01*
X146848810Y-139499583D02*
X146788333Y-139620535D01*
X146788333Y-139620535D02*
X146727857Y-139681011D01*
X146727857Y-139681011D02*
X146606905Y-139741488D01*
X146606905Y-139741488D02*
X146183571Y-139741488D01*
X147393095Y-139257678D02*
X147453571Y-139197202D01*
X147453571Y-139197202D02*
X147574524Y-139136726D01*
X147574524Y-139136726D02*
X147876905Y-139136726D01*
X147876905Y-139136726D02*
X147997857Y-139197202D01*
X147997857Y-139197202D02*
X148058333Y-139257678D01*
X148058333Y-139257678D02*
X148118810Y-139378630D01*
X148118810Y-139378630D02*
X148118810Y-139499583D01*
X148118810Y-139499583D02*
X148058333Y-139681011D01*
X148058333Y-139681011D02*
X147332619Y-140406726D01*
X147332619Y-140406726D02*
X148118810Y-140406726D01*
X148663095Y-140285773D02*
X148723572Y-140346250D01*
X148723572Y-140346250D02*
X148663095Y-140406726D01*
X148663095Y-140406726D02*
X148602619Y-140346250D01*
X148602619Y-140346250D02*
X148663095Y-140285773D01*
X148663095Y-140285773D02*
X148663095Y-140406726D01*
X149509762Y-139136726D02*
X149630715Y-139136726D01*
X149630715Y-139136726D02*
X149751667Y-139197202D01*
X149751667Y-139197202D02*
X149812143Y-139257678D01*
X149812143Y-139257678D02*
X149872619Y-139378630D01*
X149872619Y-139378630D02*
X149933096Y-139620535D01*
X149933096Y-139620535D02*
X149933096Y-139922916D01*
X149933096Y-139922916D02*
X149872619Y-140164821D01*
X149872619Y-140164821D02*
X149812143Y-140285773D01*
X149812143Y-140285773D02*
X149751667Y-140346250D01*
X149751667Y-140346250D02*
X149630715Y-140406726D01*
X149630715Y-140406726D02*
X149509762Y-140406726D01*
X149509762Y-140406726D02*
X149388810Y-140346250D01*
X149388810Y-140346250D02*
X149328334Y-140285773D01*
X149328334Y-140285773D02*
X149267857Y-140164821D01*
X149267857Y-140164821D02*
X149207381Y-139922916D01*
X149207381Y-139922916D02*
X149207381Y-139620535D01*
X149207381Y-139620535D02*
X149267857Y-139378630D01*
X149267857Y-139378630D02*
X149328334Y-139257678D01*
X149328334Y-139257678D02*
X149388810Y-139197202D01*
X149388810Y-139197202D02*
X149509762Y-139136726D01*
X140208095Y-118074819D02*
X140208095Y-118884342D01*
X140208095Y-118884342D02*
X140255714Y-118979580D01*
X140255714Y-118979580D02*
X140303333Y-119027200D01*
X140303333Y-119027200D02*
X140398571Y-119074819D01*
X140398571Y-119074819D02*
X140589047Y-119074819D01*
X140589047Y-119074819D02*
X140684285Y-119027200D01*
X140684285Y-119027200D02*
X140731904Y-118979580D01*
X140731904Y-118979580D02*
X140779523Y-118884342D01*
X140779523Y-118884342D02*
X140779523Y-118074819D01*
X141779523Y-119074819D02*
X141208095Y-119074819D01*
X141493809Y-119074819D02*
X141493809Y-118074819D01*
X141493809Y-118074819D02*
X141398571Y-118217676D01*
X141398571Y-118217676D02*
X141303333Y-118312914D01*
X141303333Y-118312914D02*
X141208095Y-118360533D01*
X143233333Y-127924819D02*
X142900000Y-127448628D01*
X142661905Y-127924819D02*
X142661905Y-126924819D01*
X142661905Y-126924819D02*
X143042857Y-126924819D01*
X143042857Y-126924819D02*
X143138095Y-126972438D01*
X143138095Y-126972438D02*
X143185714Y-127020057D01*
X143185714Y-127020057D02*
X143233333Y-127115295D01*
X143233333Y-127115295D02*
X143233333Y-127258152D01*
X143233333Y-127258152D02*
X143185714Y-127353390D01*
X143185714Y-127353390D02*
X143138095Y-127401009D01*
X143138095Y-127401009D02*
X143042857Y-127448628D01*
X143042857Y-127448628D02*
X142661905Y-127448628D01*
X143614286Y-127020057D02*
X143661905Y-126972438D01*
X143661905Y-126972438D02*
X143757143Y-126924819D01*
X143757143Y-126924819D02*
X143995238Y-126924819D01*
X143995238Y-126924819D02*
X144090476Y-126972438D01*
X144090476Y-126972438D02*
X144138095Y-127020057D01*
X144138095Y-127020057D02*
X144185714Y-127115295D01*
X144185714Y-127115295D02*
X144185714Y-127210533D01*
X144185714Y-127210533D02*
X144138095Y-127353390D01*
X144138095Y-127353390D02*
X143566667Y-127924819D01*
X143566667Y-127924819D02*
X144185714Y-127924819D01*
X143213333Y-128974819D02*
X142880000Y-128498628D01*
X142641905Y-128974819D02*
X142641905Y-127974819D01*
X142641905Y-127974819D02*
X143022857Y-127974819D01*
X143022857Y-127974819D02*
X143118095Y-128022438D01*
X143118095Y-128022438D02*
X143165714Y-128070057D01*
X143165714Y-128070057D02*
X143213333Y-128165295D01*
X143213333Y-128165295D02*
X143213333Y-128308152D01*
X143213333Y-128308152D02*
X143165714Y-128403390D01*
X143165714Y-128403390D02*
X143118095Y-128451009D01*
X143118095Y-128451009D02*
X143022857Y-128498628D01*
X143022857Y-128498628D02*
X142641905Y-128498628D01*
X144165714Y-128974819D02*
X143594286Y-128974819D01*
X143880000Y-128974819D02*
X143880000Y-127974819D01*
X143880000Y-127974819D02*
X143784762Y-128117676D01*
X143784762Y-128117676D02*
X143689524Y-128212914D01*
X143689524Y-128212914D02*
X143594286Y-128260533D01*
D11*
X137904318Y-127457381D02*
X136634318Y-127457381D01*
X136634318Y-127457381D02*
X136634318Y-127155000D01*
X136634318Y-127155000D02*
X136694794Y-126973571D01*
X136694794Y-126973571D02*
X136815746Y-126852619D01*
X136815746Y-126852619D02*
X136936699Y-126792142D01*
X136936699Y-126792142D02*
X137178603Y-126731666D01*
X137178603Y-126731666D02*
X137360032Y-126731666D01*
X137360032Y-126731666D02*
X137601937Y-126792142D01*
X137601937Y-126792142D02*
X137722889Y-126852619D01*
X137722889Y-126852619D02*
X137843842Y-126973571D01*
X137843842Y-126973571D02*
X137904318Y-127155000D01*
X137904318Y-127155000D02*
X137904318Y-127457381D01*
X137057651Y-125643095D02*
X137904318Y-125643095D01*
X136573842Y-125945476D02*
X137480984Y-126247857D01*
X137480984Y-126247857D02*
X137480984Y-125461666D01*
X141914318Y-127357381D02*
X140644318Y-127357381D01*
X140644318Y-127357381D02*
X140644318Y-127055000D01*
X140644318Y-127055000D02*
X140704794Y-126873571D01*
X140704794Y-126873571D02*
X140825746Y-126752619D01*
X140825746Y-126752619D02*
X140946699Y-126692142D01*
X140946699Y-126692142D02*
X141188603Y-126631666D01*
X141188603Y-126631666D02*
X141370032Y-126631666D01*
X141370032Y-126631666D02*
X141611937Y-126692142D01*
X141611937Y-126692142D02*
X141732889Y-126752619D01*
X141732889Y-126752619D02*
X141853842Y-126873571D01*
X141853842Y-126873571D02*
X141914318Y-127055000D01*
X141914318Y-127055000D02*
X141914318Y-127357381D01*
X140644318Y-126208333D02*
X140644318Y-125422142D01*
X140644318Y-125422142D02*
X141128127Y-125845476D01*
X141128127Y-125845476D02*
X141128127Y-125664047D01*
X141128127Y-125664047D02*
X141188603Y-125543095D01*
X141188603Y-125543095D02*
X141249080Y-125482619D01*
X141249080Y-125482619D02*
X141370032Y-125422142D01*
X141370032Y-125422142D02*
X141672413Y-125422142D01*
X141672413Y-125422142D02*
X141793365Y-125482619D01*
X141793365Y-125482619D02*
X141853842Y-125543095D01*
X141853842Y-125543095D02*
X141914318Y-125664047D01*
X141914318Y-125664047D02*
X141914318Y-126026904D01*
X141914318Y-126026904D02*
X141853842Y-126147857D01*
X141853842Y-126147857D02*
X141793365Y-126208333D01*
D10*
X141594819Y-127068094D02*
X140594819Y-127068094D01*
X140594819Y-127068094D02*
X140594819Y-126829999D01*
X140594819Y-126829999D02*
X140642438Y-126687142D01*
X140642438Y-126687142D02*
X140737676Y-126591904D01*
X140737676Y-126591904D02*
X140832914Y-126544285D01*
X140832914Y-126544285D02*
X141023390Y-126496666D01*
X141023390Y-126496666D02*
X141166247Y-126496666D01*
X141166247Y-126496666D02*
X141356723Y-126544285D01*
X141356723Y-126544285D02*
X141451961Y-126591904D01*
X141451961Y-126591904D02*
X141547200Y-126687142D01*
X141547200Y-126687142D02*
X141594819Y-126829999D01*
X141594819Y-126829999D02*
X141594819Y-127068094D01*
X140690057Y-126115713D02*
X140642438Y-126068094D01*
X140642438Y-126068094D02*
X140594819Y-125972856D01*
X140594819Y-125972856D02*
X140594819Y-125734761D01*
X140594819Y-125734761D02*
X140642438Y-125639523D01*
X140642438Y-125639523D02*
X140690057Y-125591904D01*
X140690057Y-125591904D02*
X140785295Y-125544285D01*
X140785295Y-125544285D02*
X140880533Y-125544285D01*
X140880533Y-125544285D02*
X141023390Y-125591904D01*
X141023390Y-125591904D02*
X141594819Y-126163332D01*
X141594819Y-126163332D02*
X141594819Y-125544285D01*
D11*
X137834318Y-124437381D02*
X136564318Y-124437381D01*
X136564318Y-124437381D02*
X136564318Y-124135000D01*
X136564318Y-124135000D02*
X136624794Y-123953571D01*
X136624794Y-123953571D02*
X136745746Y-123832619D01*
X136745746Y-123832619D02*
X136866699Y-123772142D01*
X136866699Y-123772142D02*
X137108603Y-123711666D01*
X137108603Y-123711666D02*
X137290032Y-123711666D01*
X137290032Y-123711666D02*
X137531937Y-123772142D01*
X137531937Y-123772142D02*
X137652889Y-123832619D01*
X137652889Y-123832619D02*
X137773842Y-123953571D01*
X137773842Y-123953571D02*
X137834318Y-124135000D01*
X137834318Y-124135000D02*
X137834318Y-124437381D01*
X137834318Y-122502142D02*
X137834318Y-123227857D01*
X137834318Y-122865000D02*
X136564318Y-122865000D01*
X136564318Y-122865000D02*
X136745746Y-122985952D01*
X136745746Y-122985952D02*
X136866699Y-123106904D01*
X136866699Y-123106904D02*
X136927175Y-123227857D01*
D12*
%TO.C,TP7*%
X149800000Y-97790000D02*
X149800000Y-96460000D01*
X149800000Y-101660000D02*
X152460000Y-101660000D01*
X149800000Y-99060000D02*
X149800000Y-101660000D01*
X149800000Y-99060000D02*
X152460000Y-99060000D01*
X149800000Y-96460000D02*
X151130000Y-96460000D01*
X152460000Y-99060000D02*
X152460000Y-101660000D01*
%TO.C,TP5*%
X139700000Y-90230000D02*
X138370000Y-90230000D01*
X143570000Y-90230000D02*
X143570000Y-87570000D01*
X140970000Y-90230000D02*
X143570000Y-90230000D01*
X140970000Y-90230000D02*
X140970000Y-87570000D01*
X138370000Y-90230000D02*
X138370000Y-88900000D01*
X140970000Y-87570000D02*
X143570000Y-87570000D01*
%TO.C,TP1*%
X129480000Y-97790000D02*
X129480000Y-96460000D01*
X129480000Y-101660000D02*
X132140000Y-101660000D01*
X129480000Y-99060000D02*
X129480000Y-101660000D01*
X129480000Y-99060000D02*
X132140000Y-99060000D01*
X129480000Y-96460000D02*
X130810000Y-96460000D01*
X132140000Y-99060000D02*
X132140000Y-101660000D01*
%TO.C,TP4*%
X149800000Y-124460000D02*
X149800000Y-123130000D01*
X149800000Y-128330000D02*
X152460000Y-128330000D01*
X149800000Y-125730000D02*
X149800000Y-128330000D01*
X149800000Y-125730000D02*
X152460000Y-125730000D01*
X149800000Y-123130000D02*
X151130000Y-123130000D01*
X152460000Y-125730000D02*
X152460000Y-128330000D01*
%TO.C,TP3*%
X129480000Y-124460000D02*
X129480000Y-123130000D01*
X129480000Y-128330000D02*
X132140000Y-128330000D01*
X129480000Y-125730000D02*
X129480000Y-128330000D01*
X129480000Y-125730000D02*
X132140000Y-125730000D01*
X129480000Y-123130000D02*
X130810000Y-123130000D01*
X132140000Y-125730000D02*
X132140000Y-128330000D01*
%TO.C,TP2*%
X139440000Y-116900000D02*
X138110000Y-116900000D01*
X143310000Y-116900000D02*
X143310000Y-114240000D01*
X140710000Y-116900000D02*
X143310000Y-116900000D01*
X140710000Y-116900000D02*
X140710000Y-114240000D01*
X138110000Y-116900000D02*
X138110000Y-115570000D01*
X140710000Y-114240000D02*
X143310000Y-114240000D01*
D10*
%TO.C,SW1*%
X134640000Y-103505000D02*
G75*
G03*
X137180000Y-106045000I2540000J0D01*
G01*
X138525838Y-99676040D02*
G75*
G03*
X140990000Y-101600000I2464162J616040D01*
G01*
X134640000Y-103505000D02*
X134640000Y-103124000D01*
X134640000Y-100076000D02*
X134640000Y-99695000D01*
X134640000Y-99695000D02*
X135021000Y-99695000D01*
X136799000Y-99695000D02*
X138450000Y-99695000D01*
X140990000Y-101600000D02*
X146070000Y-101600000D01*
X146070000Y-101600000D02*
X146070000Y-102616000D01*
X146070000Y-105664000D02*
X146070000Y-106045000D01*
X146070000Y-106045000D02*
X137180000Y-106045000D01*
D11*
%TO.C,P1*%
X136078000Y-138430000D02*
X145222000Y-138430000D01*
X136078000Y-136857000D02*
X136078000Y-138430000D01*
X145222000Y-134673000D02*
X145222000Y-132777000D01*
X145222000Y-138430000D02*
X145222000Y-136857000D01*
X136078000Y-132777000D02*
X136078000Y-134673000D01*
D12*
%TO.C,U1*%
X143080000Y-119810000D02*
X143080000Y-120535000D01*
X139585000Y-119810000D02*
X138860000Y-119810000D01*
X138860000Y-124030000D02*
X138860000Y-123305000D01*
X142355000Y-124030000D02*
X143080000Y-124030000D01*
X142355000Y-119810000D02*
X143080000Y-119810000D01*
X143080000Y-124030000D02*
X143080000Y-123305000D01*
X139585000Y-124030000D02*
X138860000Y-124030000D01*
%TO.C,R2*%
X143553641Y-126680000D02*
X143246359Y-126680000D01*
X143553641Y-125920000D02*
X143246359Y-125920000D01*
%TO.C,R1*%
X143533641Y-127730000D02*
X143226359Y-127730000D01*
X143533641Y-126970000D02*
X143226359Y-126970000D01*
D13*
%TO.C,D4*%
X137730000Y-125920000D02*
X137730000Y-127120000D01*
X136930000Y-125920000D02*
X136930000Y-127120000D01*
X137430000Y-125420000D02*
X137430000Y-125420000D01*
X137330000Y-125420000D02*
X137330000Y-125420000D01*
X137430000Y-125420000D02*
G75*
G03*
X137330000Y-125420000I-50000J0D01*
G01*
X137330000Y-125420000D02*
G75*
G03*
X137430000Y-125420000I50000J0D01*
G01*
%TO.C,D3*%
X141740000Y-125820000D02*
X141740000Y-127020000D01*
X140940000Y-125820000D02*
X140940000Y-127020000D01*
X141440000Y-125320000D02*
X141440000Y-125320000D01*
X141340000Y-125320000D02*
X141340000Y-125320000D01*
X141440000Y-125320000D02*
G75*
G03*
X141340000Y-125320000I-50000J0D01*
G01*
X141340000Y-125320000D02*
G75*
G03*
X141440000Y-125320000I50000J0D01*
G01*
D12*
%TO.C,D2*%
X140140000Y-124720000D02*
X138440000Y-124720000D01*
X138440000Y-124720000D02*
X138440000Y-127380000D01*
X140140000Y-124720000D02*
X140140000Y-127380000D01*
D13*
%TO.C,D1*%
X137660000Y-122900000D02*
X137660000Y-124100000D01*
X136860000Y-122900000D02*
X136860000Y-124100000D01*
X137360000Y-122400000D02*
X137360000Y-122400000D01*
X137260000Y-122400000D02*
X137260000Y-122400000D01*
X137360000Y-122400000D02*
G75*
G03*
X137260000Y-122400000I-50000J0D01*
G01*
X137260000Y-122400000D02*
G75*
G03*
X137360000Y-122400000I50000J0D01*
G01*
%TD*%
%LPC*%
D14*
%TO.C,TP7*%
X151130000Y-97790000D03*
D15*
X151130000Y-100330000D03*
%TD*%
D14*
%TO.C,TP5*%
X139700000Y-88900000D03*
D15*
X142240000Y-88900000D03*
%TD*%
D14*
%TO.C,TP1*%
X130810000Y-97790000D03*
D15*
X130810000Y-100330000D03*
%TD*%
D14*
%TO.C,TP4*%
X151130000Y-124460000D03*
D15*
X151130000Y-127000000D03*
%TD*%
D14*
%TO.C,TP3*%
X130810000Y-124460000D03*
D15*
X130810000Y-127000000D03*
%TD*%
D14*
%TO.C,TP2*%
X139440000Y-115570000D03*
D15*
X141980000Y-115570000D03*
%TD*%
D16*
%TO.C,SW1*%
X147280000Y-104140000D03*
D17*
X143530000Y-104140000D03*
X137180000Y-101600000D03*
D18*
X138450000Y-93980000D03*
D19*
X140990000Y-99060000D03*
D18*
X144800000Y-96520000D03*
D20*
X135910000Y-99060000D03*
X146070000Y-99060000D03*
D16*
X133430000Y-101600000D03*
%TD*%
D21*
%TO.C,P1*%
X143540000Y-132115000D03*
X137760000Y-132115000D03*
D22*
X136330000Y-131585000D03*
X144970000Y-131585000D03*
D23*
X136330000Y-135765000D03*
X144970000Y-135765000D03*
D24*
X137300000Y-130935000D03*
X138100000Y-130935000D03*
X139400000Y-130935000D03*
X140400000Y-130935000D03*
X140900000Y-130935000D03*
X141900000Y-130935000D03*
X143200000Y-130935000D03*
X144000000Y-130935000D03*
X143700000Y-130935000D03*
X142900000Y-130935000D03*
X142400000Y-130935000D03*
X141400000Y-130935000D03*
X139900000Y-130935000D03*
X138900000Y-130935000D03*
X138400000Y-130935000D03*
X137600000Y-130935000D03*
%TD*%
D25*
%TO.C,U1*%
X139045000Y-120920000D03*
X139045000Y-121420000D03*
X139045000Y-121920000D03*
X139045000Y-122420000D03*
X139045000Y-122920000D03*
D26*
X139970000Y-123845000D03*
X140470000Y-123845000D03*
X140970000Y-123845000D03*
X141470000Y-123845000D03*
X141970000Y-123845000D03*
D25*
X142895000Y-122920000D03*
X142895000Y-122420000D03*
X142895000Y-121920000D03*
X142895000Y-121420000D03*
X142895000Y-120920000D03*
D26*
X141970000Y-119995000D03*
X141470000Y-119995000D03*
X140970000Y-119995000D03*
X140470000Y-119995000D03*
X139970000Y-119995000D03*
D27*
X140970000Y-121920000D03*
%TD*%
D28*
%TO.C,R2*%
X143910000Y-126300000D03*
X142890000Y-126300000D03*
%TD*%
%TO.C,R1*%
X143890000Y-127350000D03*
X142870000Y-127350000D03*
%TD*%
D29*
%TO.C,D4*%
X137330000Y-125860000D03*
X137330000Y-127180000D03*
%TD*%
%TO.C,D3*%
X141340000Y-125760000D03*
X141340000Y-127080000D03*
%TD*%
D30*
%TO.C,D2*%
X139290000Y-125280000D03*
X139290000Y-127380000D03*
%TD*%
D29*
%TO.C,D1*%
X137260000Y-122840000D03*
X137260000Y-124160000D03*
%TD*%
%LPD*%
M02*
