%TF.GenerationSoftware,KiCad,Pcbnew,7.0.6*%
%TF.CreationDate,2023-08-06T17:13:19+10:00*%
%TF.ProjectId,single-key-keyboard,73696e67-6c65-42d6-9b65-792d6b657962,rev?*%
%TF.SameCoordinates,Original*%
%TF.FileFunction,Legend,Bot*%
%TF.FilePolarity,Positive*%
%FSLAX46Y46*%
G04 Gerber Fmt 4.6, Leading zero omitted, Abs format (unit mm)*
G04 Created by KiCad (PCBNEW 7.0.6) date 2023-08-06 17:13:19*
%MOMM*%
%LPD*%
G01*
G04 APERTURE LIST*
%ADD10C,0.150000*%
%ADD11R,1.700000X1.700000*%
%ADD12O,1.700000X1.700000*%
%ADD13C,3.000000*%
%ADD14C,2.286000*%
%ADD15C,3.987800*%
%ADD16C,1.701800*%
%ADD17C,0.700000*%
%ADD18O,1.200000X2.000000*%
%ADD19O,1.200000X1.800000*%
G04 APERTURE END LIST*
D10*
X142323332Y-91212200D02*
X142180475Y-91259819D01*
X142180475Y-91259819D02*
X141942380Y-91259819D01*
X141942380Y-91259819D02*
X141847142Y-91212200D01*
X141847142Y-91212200D02*
X141799523Y-91164580D01*
X141799523Y-91164580D02*
X141751904Y-91069342D01*
X141751904Y-91069342D02*
X141751904Y-90974104D01*
X141751904Y-90974104D02*
X141799523Y-90878866D01*
X141799523Y-90878866D02*
X141847142Y-90831247D01*
X141847142Y-90831247D02*
X141942380Y-90783628D01*
X141942380Y-90783628D02*
X142132856Y-90736009D01*
X142132856Y-90736009D02*
X142228094Y-90688390D01*
X142228094Y-90688390D02*
X142275713Y-90640771D01*
X142275713Y-90640771D02*
X142323332Y-90545533D01*
X142323332Y-90545533D02*
X142323332Y-90450295D01*
X142323332Y-90450295D02*
X142275713Y-90355057D01*
X142275713Y-90355057D02*
X142228094Y-90307438D01*
X142228094Y-90307438D02*
X142132856Y-90259819D01*
X142132856Y-90259819D02*
X141894761Y-90259819D01*
X141894761Y-90259819D02*
X141751904Y-90307438D01*
X141418570Y-90259819D02*
X141180475Y-91259819D01*
X141180475Y-91259819D02*
X140989999Y-90545533D01*
X140989999Y-90545533D02*
X140799523Y-91259819D01*
X140799523Y-91259819D02*
X140561428Y-90259819D01*
X139656666Y-91259819D02*
X140228094Y-91259819D01*
X139942380Y-91259819D02*
X139942380Y-90259819D01*
X139942380Y-90259819D02*
X140037618Y-90402676D01*
X140037618Y-90402676D02*
X140132856Y-90497914D01*
X140132856Y-90497914D02*
X140228094Y-90545533D01*
%TO.C,SW1*%
X147990000Y-93060000D02*
X147990000Y-92060000D01*
X147990000Y-106060000D02*
X146990000Y-106060000D01*
X146990000Y-92060000D02*
X147990000Y-92060000D01*
X147990000Y-106060000D02*
X147990000Y-105060000D01*
X133990000Y-105060000D02*
X133990000Y-106060000D01*
X133990000Y-92060000D02*
X134990000Y-92060000D01*
X134990000Y-106060000D02*
X133990000Y-106060000D01*
X133990000Y-92060000D02*
X133990000Y-93060000D01*
%TD*%
%LPC*%
D11*
%TO.C,TP7*%
X151130000Y-97790000D03*
D12*
X151130000Y-100330000D03*
%TD*%
D11*
%TO.C,TP5*%
X139700000Y-88900000D03*
D12*
X142240000Y-88900000D03*
%TD*%
D11*
%TO.C,TP1*%
X130810000Y-97790000D03*
D12*
X130810000Y-100330000D03*
%TD*%
D11*
%TO.C,TP4*%
X151130000Y-124460000D03*
D12*
X151130000Y-127000000D03*
%TD*%
D11*
%TO.C,TP3*%
X130810000Y-124460000D03*
D12*
X130810000Y-127000000D03*
%TD*%
D11*
%TO.C,TP2*%
X139440000Y-115570000D03*
D12*
X141980000Y-115570000D03*
%TD*%
D13*
%TO.C,SW1*%
X143530000Y-104140000D03*
X137180000Y-101600000D03*
D14*
X138450000Y-93980000D03*
D15*
X140990000Y-99060000D03*
D14*
X144800000Y-96520000D03*
D16*
X135910000Y-99060000D03*
X146070000Y-99060000D03*
%TD*%
D17*
%TO.C,P1*%
X143540000Y-132115000D03*
X137760000Y-132115000D03*
D18*
X136330000Y-131585000D03*
X144970000Y-131585000D03*
D19*
X136330000Y-135765000D03*
X144970000Y-135765000D03*
%TD*%
%LPD*%
M02*
