%TF.GenerationSoftware,KiCad,Pcbnew,7.0.6*%
%TF.CreationDate,2023-08-06T17:13:19+10:00*%
%TF.ProjectId,single-key-keyboard,73696e67-6c65-42d6-9b65-792d6b657962,rev?*%
%TF.SameCoordinates,Original*%
%TF.FileFunction,Copper,L1,Top*%
%TF.FilePolarity,Positive*%
%FSLAX46Y46*%
G04 Gerber Fmt 4.6, Leading zero omitted, Abs format (unit mm)*
G04 Created by KiCad (PCBNEW 7.0.6) date 2023-08-06 17:13:19*
%MOMM*%
%LPD*%
G01*
G04 APERTURE LIST*
G04 Aperture macros list*
%AMRoundRect*
0 Rectangle with rounded corners*
0 $1 Rounding radius*
0 $2 $3 $4 $5 $6 $7 $8 $9 X,Y pos of 4 corners*
0 Add a 4 corners polygon primitive as box body*
4,1,4,$2,$3,$4,$5,$6,$7,$8,$9,$2,$3,0*
0 Add four circle primitives for the rounded corners*
1,1,$1+$1,$2,$3*
1,1,$1+$1,$4,$5*
1,1,$1+$1,$6,$7*
1,1,$1+$1,$8,$9*
0 Add four rect primitives between the rounded corners*
20,1,$1+$1,$2,$3,$4,$5,0*
20,1,$1+$1,$4,$5,$6,$7,0*
20,1,$1+$1,$6,$7,$8,$9,0*
20,1,$1+$1,$8,$9,$2,$3,0*%
G04 Aperture macros list end*
%TA.AperFunction,ComponentPad*%
%ADD10R,1.700000X1.700000*%
%TD*%
%TA.AperFunction,ComponentPad*%
%ADD11O,1.700000X1.700000*%
%TD*%
%TA.AperFunction,SMDPad,CuDef*%
%ADD12R,2.550000X2.500000*%
%TD*%
%TA.AperFunction,ComponentPad*%
%ADD13C,2.286000*%
%TD*%
%TA.AperFunction,ComponentPad*%
%ADD14O,1.200000X2.000000*%
%TD*%
%TA.AperFunction,ComponentPad*%
%ADD15O,1.200000X1.800000*%
%TD*%
%TA.AperFunction,SMDPad,CuDef*%
%ADD16R,0.300000X1.300000*%
%TD*%
%TA.AperFunction,SMDPad,CuDef*%
%ADD17RoundRect,0.062500X-0.362500X-0.062500X0.362500X-0.062500X0.362500X0.062500X-0.362500X0.062500X0*%
%TD*%
%TA.AperFunction,SMDPad,CuDef*%
%ADD18RoundRect,0.062500X-0.062500X-0.362500X0.062500X-0.362500X0.062500X0.362500X-0.062500X0.362500X0*%
%TD*%
%TA.AperFunction,SMDPad,CuDef*%
%ADD19R,2.600000X2.600000*%
%TD*%
%TA.AperFunction,SMDPad,CuDef*%
%ADD20RoundRect,0.135000X0.135000X0.185000X-0.135000X0.185000X-0.135000X-0.185000X0.135000X-0.185000X0*%
%TD*%
%TA.AperFunction,SMDPad,CuDef*%
%ADD21R,0.400000X0.480000*%
%TD*%
%TA.AperFunction,SMDPad,CuDef*%
%ADD22RoundRect,0.112500X-0.112500X0.187500X-0.112500X-0.187500X0.112500X-0.187500X0.112500X0.187500X0*%
%TD*%
G04 APERTURE END LIST*
D10*
%TO.P,TP7,1,1*%
%TO.N,unconnected-(TP7-Pad1)*%
X151130000Y-97790000D03*
D11*
%TO.P,TP7,2*%
%TO.N,N/C*%
X151130000Y-100330000D03*
%TD*%
D10*
%TO.P,TP5,1,1*%
%TO.N,unconnected-(TP5-Pad1)*%
X139700000Y-88900000D03*
D11*
%TO.P,TP5,2*%
%TO.N,N/C*%
X142240000Y-88900000D03*
%TD*%
D10*
%TO.P,TP1,1,1*%
%TO.N,unconnected-(TP1-Pad1)*%
X130810000Y-97790000D03*
D11*
%TO.P,TP1,2*%
%TO.N,N/C*%
X130810000Y-100330000D03*
%TD*%
D10*
%TO.P,TP4,1,1*%
%TO.N,unconnected-(TP4-Pad1)*%
X151130000Y-124460000D03*
D11*
%TO.P,TP4,2*%
%TO.N,N/C*%
X151130000Y-127000000D03*
%TD*%
D10*
%TO.P,TP3,1,1*%
%TO.N,unconnected-(TP3-Pad1)*%
X130810000Y-124460000D03*
D11*
%TO.P,TP3,2*%
%TO.N,N/C*%
X130810000Y-127000000D03*
%TD*%
D10*
%TO.P,TP2,1,1*%
%TO.N,unconnected-(TP2-Pad1)*%
X139440000Y-115570000D03*
D11*
%TO.P,TP2,2*%
%TO.N,N/C*%
X141980000Y-115570000D03*
%TD*%
D12*
%TO.P,SW1,1,1*%
%TO.N,unconnected-(SW1-Pad1)*%
X147280000Y-104140000D03*
D13*
X138450000Y-93980000D03*
%TO.P,SW1,2,2*%
%TO.N,unconnected-(SW1-Pad2)*%
X144800000Y-96520000D03*
D12*
X133430000Y-101600000D03*
%TD*%
D14*
%TO.P,P1,1*%
%TO.N,N/C*%
X136330000Y-131585000D03*
%TO.P,P1,2*%
X144970000Y-131585000D03*
D15*
%TO.P,P1,3*%
X136330000Y-135765000D03*
%TO.P,P1,4*%
X144970000Y-135765000D03*
D16*
%TO.P,P1,A1,GND*%
%TO.N,GND*%
X137300000Y-130935000D03*
%TO.P,P1,A4,VBUS*%
%TO.N,/VBUS*%
X138100000Y-130935000D03*
%TO.P,P1,A5,CC1*%
%TO.N,Net-(P1-CC1)*%
X139400000Y-130935000D03*
%TO.P,P1,A6,D+*%
%TO.N,/D+*%
X140400000Y-130935000D03*
%TO.P,P1,A7,D-*%
%TO.N,/D-*%
X140900000Y-130935000D03*
%TO.P,P1,A8,SBU1*%
%TO.N,unconnected-(P1-SBU1-PadA8)*%
X141900000Y-130935000D03*
%TO.P,P1,A9,VBUS*%
%TO.N,/VBUS*%
X143200000Y-130935000D03*
%TO.P,P1,A12,GND*%
%TO.N,GND*%
X144000000Y-130935000D03*
%TO.P,P1,B1,GND*%
X143700000Y-130935000D03*
%TO.P,P1,B4,VBUS*%
%TO.N,/VBUS*%
X142900000Y-130935000D03*
%TO.P,P1,B5,CC2*%
%TO.N,Net-(P1-CC2)*%
X142400000Y-130935000D03*
%TO.P,P1,B6,D+*%
%TO.N,/D+*%
X141400000Y-130935000D03*
%TO.P,P1,B7,D-*%
%TO.N,/D-*%
X139900000Y-130935000D03*
%TO.P,P1,B8,SBU2*%
%TO.N,unconnected-(P1-SBU2-PadB8)*%
X138900000Y-130935000D03*
%TO.P,P1,B9,VBUS*%
%TO.N,/VBUS*%
X138400000Y-130935000D03*
%TO.P,P1,B12,GND*%
%TO.N,GND*%
X137600000Y-130935000D03*
%TD*%
D17*
%TO.P,U1,1,~{RESET}/PB5*%
%TO.N,unconnected-(U1-~{RESET}{slash}PB5-Pad1)*%
X139045000Y-120920000D03*
%TO.P,U1,2,XTAL1/PB3*%
%TO.N,unconnected-(U1-XTAL1{slash}PB3-Pad2)*%
X139045000Y-121420000D03*
%TO.P,U1,3,NC*%
%TO.N,unconnected-(U1-NC-Pad3)*%
X139045000Y-121920000D03*
%TO.P,U1,4,NC*%
%TO.N,unconnected-(U1-NC-Pad4)*%
X139045000Y-122420000D03*
%TO.P,U1,5,XTAL2/PB4*%
%TO.N,unconnected-(U1-XTAL2{slash}PB4-Pad5)*%
X139045000Y-122920000D03*
D18*
%TO.P,U1,6,NC*%
%TO.N,unconnected-(U1-NC-Pad6)*%
X139970000Y-123845000D03*
%TO.P,U1,7,NC*%
%TO.N,unconnected-(U1-NC-Pad7)*%
X140470000Y-123845000D03*
%TO.P,U1,8,GND*%
%TO.N,GND*%
X140970000Y-123845000D03*
%TO.P,U1,9,NC*%
%TO.N,unconnected-(U1-NC-Pad9)*%
X141470000Y-123845000D03*
%TO.P,U1,10,NC*%
%TO.N,unconnected-(U1-NC-Pad10)*%
X141970000Y-123845000D03*
D17*
%TO.P,U1,11,AREF/PB0*%
%TO.N,unconnected-(U1-AREF{slash}PB0-Pad11)*%
X142895000Y-122920000D03*
%TO.P,U1,12,PB1*%
%TO.N,unconnected-(U1-PB1-Pad12)*%
X142895000Y-122420000D03*
%TO.P,U1,13,NC*%
%TO.N,unconnected-(U1-NC-Pad13)*%
X142895000Y-121920000D03*
%TO.P,U1,14,PB2*%
%TO.N,unconnected-(U1-PB2-Pad14)*%
X142895000Y-121420000D03*
%TO.P,U1,15,VCC*%
%TO.N,+5VP*%
X142895000Y-120920000D03*
D18*
%TO.P,U1,16,NC*%
%TO.N,unconnected-(U1-NC-Pad16)*%
X141970000Y-119995000D03*
%TO.P,U1,17,NC*%
%TO.N,unconnected-(U1-NC-Pad17)*%
X141470000Y-119995000D03*
%TO.P,U1,18,NC*%
%TO.N,unconnected-(U1-NC-Pad18)*%
X140970000Y-119995000D03*
%TO.P,U1,19,NC*%
%TO.N,unconnected-(U1-NC-Pad19)*%
X140470000Y-119995000D03*
%TO.P,U1,20,NC*%
%TO.N,unconnected-(U1-NC-Pad20)*%
X139970000Y-119995000D03*
D19*
%TO.P,U1,21,GND*%
%TO.N,GND*%
X140970000Y-121920000D03*
%TD*%
D20*
%TO.P,R2,1*%
%TO.N,GND*%
X143910000Y-126300000D03*
%TO.P,R2,2*%
%TO.N,Net-(P1-CC1)*%
X142890000Y-126300000D03*
%TD*%
%TO.P,R1,1*%
%TO.N,GND*%
X143890000Y-127350000D03*
%TO.P,R1,2*%
%TO.N,Net-(P1-CC2)*%
X142870000Y-127350000D03*
%TD*%
D21*
%TO.P,D4,1*%
%TO.N,GND*%
X137330000Y-125860000D03*
%TO.P,D4,2*%
%TO.N,/VBUS*%
X137330000Y-127180000D03*
%TD*%
%TO.P,D3,1*%
%TO.N,GND*%
X141340000Y-125760000D03*
%TO.P,D3,2*%
%TO.N,/D+*%
X141340000Y-127080000D03*
%TD*%
D22*
%TO.P,D2,1,K*%
%TO.N,+5VP*%
X139290000Y-125280000D03*
%TO.P,D2,2,A*%
%TO.N,/VBUS*%
X139290000Y-127380000D03*
%TD*%
D21*
%TO.P,D1,1*%
%TO.N,GND*%
X137260000Y-122840000D03*
%TO.P,D1,2*%
%TO.N,/D-*%
X137260000Y-124160000D03*
%TD*%
%TA.AperFunction,Conductor*%
%TO.N,GND*%
G36*
X135326840Y-99997830D02*
G01*
X135350542Y-100009694D01*
X135403014Y-100043416D01*
X135598288Y-100121593D01*
X135727084Y-100146416D01*
X135804828Y-100161400D01*
X135842653Y-100161400D01*
X135909692Y-100181085D01*
X135955447Y-100233889D01*
X135965391Y-100303047D01*
X135936366Y-100366603D01*
X135933552Y-100369741D01*
X135807567Y-100505520D01*
X135659768Y-100722302D01*
X135659767Y-100722303D01*
X135545938Y-100958673D01*
X135468606Y-101209376D01*
X135468605Y-101209380D01*
X135468605Y-101209382D01*
X135468604Y-101209385D01*
X135457781Y-101281186D01*
X135452114Y-101318786D01*
X135422657Y-101382142D01*
X135363623Y-101419515D01*
X135293755Y-101419039D01*
X135235235Y-101380866D01*
X135206644Y-101317114D01*
X135205499Y-101300303D01*
X135205499Y-100302129D01*
X135205498Y-100302123D01*
X135202085Y-100270375D01*
X135199091Y-100242517D01*
X135176178Y-100181085D01*
X135167324Y-100157345D01*
X135162340Y-100087654D01*
X135195825Y-100026330D01*
X135257148Y-99992846D01*
X135326840Y-99997830D01*
G37*
%TD.AperFunction*%
%TA.AperFunction,Conductor*%
G36*
X141610890Y-86378481D02*
G01*
X141753014Y-86386463D01*
X142320925Y-86434365D01*
X142462386Y-86450303D01*
X143026725Y-86529975D01*
X143167090Y-86553824D01*
X143726065Y-86665011D01*
X143864849Y-86696687D01*
X144379401Y-86829417D01*
X144416687Y-86839035D01*
X144553549Y-86878464D01*
X145096516Y-87051524D01*
X145230898Y-87098545D01*
X145763347Y-87301792D01*
X145894887Y-87356277D01*
X146217488Y-87500631D01*
X146415098Y-87589057D01*
X146543378Y-87650832D01*
X147049725Y-87912417D01*
X147174330Y-87981285D01*
X147665206Y-88270845D01*
X147739218Y-88317350D01*
X147785761Y-88346596D01*
X147920066Y-88436335D01*
X148259631Y-88663225D01*
X148261548Y-88664586D01*
X148375739Y-88745609D01*
X148831098Y-89088301D01*
X148868054Y-89117773D01*
X148942441Y-89177096D01*
X149377838Y-89544755D01*
X149484024Y-89639648D01*
X149800129Y-89938498D01*
X149898130Y-90031150D01*
X149998849Y-90131869D01*
X150390343Y-90545966D01*
X150485244Y-90652161D01*
X150852903Y-91087558D01*
X150941706Y-91198911D01*
X151284388Y-91654257D01*
X151366784Y-91770383D01*
X151683403Y-92244238D01*
X151759159Y-92364801D01*
X152048712Y-92855665D01*
X152117586Y-92980282D01*
X152133448Y-93010985D01*
X152379164Y-93486616D01*
X152440942Y-93614901D01*
X152673720Y-94135106D01*
X152728206Y-94266648D01*
X152931446Y-94799080D01*
X152978475Y-94933481D01*
X153151534Y-95476447D01*
X153190964Y-95613312D01*
X153333305Y-96165123D01*
X153364993Y-96303955D01*
X153476173Y-96862895D01*
X153500025Y-97003280D01*
X153579691Y-97567583D01*
X153595634Y-97709078D01*
X153643534Y-98276958D01*
X153651518Y-98419132D01*
X153669451Y-99058260D01*
X153669451Y-99061738D01*
X153651518Y-99700867D01*
X153643534Y-99843041D01*
X153595634Y-100410921D01*
X153579691Y-100552416D01*
X153500025Y-101116719D01*
X153476173Y-101257104D01*
X153364993Y-101816044D01*
X153333305Y-101954876D01*
X153190964Y-102506687D01*
X153151534Y-102643552D01*
X152978475Y-103186518D01*
X152931446Y-103320919D01*
X152728206Y-103853351D01*
X152673720Y-103984893D01*
X152440942Y-104505098D01*
X152379164Y-104633383D01*
X152117591Y-105139708D01*
X152048712Y-105264334D01*
X151759159Y-105755198D01*
X151683403Y-105875761D01*
X151366784Y-106349616D01*
X151284388Y-106465742D01*
X150941706Y-106921088D01*
X150852903Y-107032441D01*
X150485244Y-107467838D01*
X150390343Y-107574033D01*
X149998849Y-107988130D01*
X149898130Y-108088849D01*
X149484033Y-108480343D01*
X149377838Y-108575244D01*
X148942441Y-108942903D01*
X148831088Y-109031706D01*
X148375742Y-109374388D01*
X148259616Y-109456784D01*
X147785761Y-109773403D01*
X147665198Y-109849159D01*
X147174334Y-110138712D01*
X147049708Y-110207591D01*
X146543383Y-110469164D01*
X146415098Y-110530942D01*
X145894893Y-110763720D01*
X145763351Y-110818206D01*
X145230919Y-111021446D01*
X145096518Y-111068475D01*
X144553552Y-111241534D01*
X144416687Y-111280964D01*
X143864876Y-111423305D01*
X143726044Y-111454993D01*
X143167104Y-111566173D01*
X143026719Y-111590025D01*
X142462416Y-111669691D01*
X142320921Y-111685634D01*
X141753041Y-111733534D01*
X141610867Y-111741518D01*
X141041210Y-111757502D01*
X140898790Y-111757502D01*
X140329132Y-111741518D01*
X140186958Y-111733534D01*
X139619078Y-111685634D01*
X139477583Y-111669691D01*
X138913280Y-111590025D01*
X138772895Y-111566173D01*
X138213955Y-111454993D01*
X138075123Y-111423305D01*
X137523312Y-111280964D01*
X137386447Y-111241534D01*
X136843481Y-111068475D01*
X136709080Y-111021446D01*
X136176648Y-110818206D01*
X136143542Y-110804493D01*
X136045098Y-110763716D01*
X135524901Y-110530942D01*
X135396616Y-110469164D01*
X134890300Y-110207595D01*
X134827978Y-110173151D01*
X134765665Y-110138712D01*
X134274809Y-109849163D01*
X134240566Y-109827647D01*
X134154238Y-109773403D01*
X133680383Y-109456784D01*
X133564257Y-109374388D01*
X133108911Y-109031706D01*
X132997558Y-108942903D01*
X132562161Y-108575244D01*
X132455966Y-108480343D01*
X132041869Y-108088849D01*
X131941150Y-107988130D01*
X131549656Y-107574033D01*
X131454755Y-107467838D01*
X131087096Y-107032441D01*
X131027773Y-106958054D01*
X130998301Y-106921098D01*
X130655609Y-106465739D01*
X130573215Y-106349616D01*
X130256596Y-105875761D01*
X130219939Y-105817423D01*
X130180845Y-105755206D01*
X129891285Y-105264330D01*
X129874787Y-105234479D01*
X129822417Y-105139725D01*
X129560832Y-104633378D01*
X129499057Y-104505098D01*
X129394388Y-104271187D01*
X141779500Y-104271187D01*
X141799794Y-104405823D01*
X141818604Y-104530615D01*
X141818605Y-104530617D01*
X141818606Y-104530623D01*
X141895938Y-104781326D01*
X142009767Y-105017696D01*
X142009768Y-105017697D01*
X142009770Y-105017700D01*
X142009772Y-105017704D01*
X142092938Y-105139686D01*
X142157567Y-105234479D01*
X142336014Y-105426801D01*
X142336018Y-105426804D01*
X142336019Y-105426805D01*
X142541143Y-105590386D01*
X142768357Y-105721568D01*
X143012584Y-105817420D01*
X143268370Y-105875802D01*
X143268376Y-105875802D01*
X143268379Y-105875803D01*
X143464500Y-105890500D01*
X143464506Y-105890500D01*
X143595500Y-105890500D01*
X143791620Y-105875803D01*
X143791622Y-105875802D01*
X143791630Y-105875802D01*
X144047416Y-105817420D01*
X144291643Y-105721568D01*
X144518857Y-105590386D01*
X144723981Y-105426805D01*
X144902433Y-105234479D01*
X145050228Y-105017704D01*
X145164063Y-104781323D01*
X145241396Y-104530615D01*
X145257886Y-104421212D01*
X145287341Y-104357858D01*
X145346375Y-104320484D01*
X145416243Y-104320959D01*
X145474763Y-104359132D01*
X145503355Y-104422884D01*
X145504500Y-104439696D01*
X145504500Y-105437870D01*
X145504501Y-105437876D01*
X145510908Y-105497483D01*
X145561202Y-105632328D01*
X145561206Y-105632335D01*
X145647452Y-105747544D01*
X145647455Y-105747547D01*
X145762664Y-105833793D01*
X145762671Y-105833797D01*
X145897517Y-105884091D01*
X145897516Y-105884091D01*
X145904444Y-105884835D01*
X145957127Y-105890500D01*
X148602872Y-105890499D01*
X148662483Y-105884091D01*
X148797331Y-105833796D01*
X148912546Y-105747546D01*
X148998796Y-105632331D01*
X149049091Y-105497483D01*
X149055500Y-105437873D01*
X149055499Y-102842128D01*
X149049091Y-102782517D01*
X149014440Y-102689614D01*
X148998797Y-102647671D01*
X148998793Y-102647664D01*
X148912547Y-102532455D01*
X148912544Y-102532452D01*
X148797335Y-102446206D01*
X148797328Y-102446202D01*
X148662482Y-102395908D01*
X148662483Y-102395908D01*
X148602883Y-102389501D01*
X148602881Y-102389500D01*
X148602873Y-102389500D01*
X148602864Y-102389500D01*
X145957129Y-102389500D01*
X145957123Y-102389501D01*
X145897516Y-102395908D01*
X145762671Y-102446202D01*
X145762664Y-102446206D01*
X145647455Y-102532452D01*
X145647452Y-102532455D01*
X145561206Y-102647664D01*
X145561202Y-102647671D01*
X145510908Y-102782517D01*
X145504501Y-102842116D01*
X145504501Y-102842123D01*
X145504500Y-102842135D01*
X145504500Y-103840301D01*
X145484815Y-103907340D01*
X145432011Y-103953095D01*
X145362853Y-103963039D01*
X145299297Y-103934014D01*
X145261523Y-103875236D01*
X145257885Y-103858783D01*
X145241396Y-103749385D01*
X145164063Y-103498677D01*
X145092705Y-103350500D01*
X145050232Y-103262303D01*
X145050231Y-103262302D01*
X145050230Y-103262301D01*
X145050228Y-103262296D01*
X144902433Y-103045521D01*
X144820745Y-102957482D01*
X144723985Y-102853198D01*
X144684533Y-102821736D01*
X144518857Y-102689614D01*
X144291643Y-102558432D01*
X144047416Y-102462580D01*
X144047411Y-102462578D01*
X144047402Y-102462576D01*
X143829818Y-102412914D01*
X143791630Y-102404198D01*
X143791629Y-102404197D01*
X143791625Y-102404197D01*
X143791620Y-102404196D01*
X143595500Y-102389500D01*
X143595494Y-102389500D01*
X143464506Y-102389500D01*
X143464500Y-102389500D01*
X143268379Y-102404196D01*
X143268374Y-102404197D01*
X143012597Y-102462576D01*
X143012578Y-102462582D01*
X142768356Y-102558432D01*
X142541143Y-102689614D01*
X142336014Y-102853198D01*
X142157567Y-103045520D01*
X142009768Y-103262302D01*
X142009767Y-103262303D01*
X141895938Y-103498673D01*
X141818606Y-103749376D01*
X141818605Y-103749381D01*
X141818604Y-103749385D01*
X141804900Y-103840301D01*
X141779500Y-104008812D01*
X141779500Y-104271187D01*
X129394388Y-104271187D01*
X129394386Y-104271182D01*
X129266277Y-103984887D01*
X129211787Y-103853335D01*
X129206812Y-103840301D01*
X129008545Y-103320898D01*
X128961524Y-103186516D01*
X128788464Y-102643549D01*
X128749035Y-102506687D01*
X128711446Y-102360968D01*
X128606692Y-101954869D01*
X128594100Y-101899698D01*
X128575011Y-101816065D01*
X128463824Y-101257090D01*
X128439974Y-101116719D01*
X128360307Y-100552409D01*
X128344365Y-100410925D01*
X128337539Y-100330000D01*
X129454341Y-100330000D01*
X129474936Y-100565403D01*
X129474938Y-100565413D01*
X129536094Y-100793655D01*
X129536096Y-100793659D01*
X129536097Y-100793663D01*
X129592452Y-100914516D01*
X129635965Y-101007830D01*
X129635967Y-101007834D01*
X129722161Y-101130931D01*
X129771505Y-101201401D01*
X129938599Y-101368495D01*
X129956267Y-101380866D01*
X130132165Y-101504032D01*
X130132167Y-101504033D01*
X130132170Y-101504035D01*
X130346337Y-101603903D01*
X130574592Y-101665063D01*
X130762918Y-101681539D01*
X130809999Y-101685659D01*
X130810000Y-101685659D01*
X130810001Y-101685659D01*
X130849234Y-101682226D01*
X131045408Y-101665063D01*
X131273663Y-101603903D01*
X131478096Y-101508573D01*
X131547172Y-101498082D01*
X131610956Y-101526602D01*
X131649196Y-101585078D01*
X131654500Y-101620956D01*
X131654500Y-102897870D01*
X131654501Y-102897876D01*
X131660908Y-102957483D01*
X131711202Y-103092328D01*
X131711206Y-103092335D01*
X131797452Y-103207544D01*
X131797455Y-103207547D01*
X131912664Y-103293793D01*
X131912671Y-103293797D01*
X132047517Y-103344091D01*
X132047516Y-103344091D01*
X132054444Y-103344835D01*
X132107127Y-103350500D01*
X134752872Y-103350499D01*
X134812483Y-103344091D01*
X134947331Y-103293796D01*
X135062546Y-103207546D01*
X135148796Y-103092331D01*
X135199091Y-102957483D01*
X135205500Y-102897873D01*
X135205499Y-101899695D01*
X135225183Y-101832659D01*
X135277987Y-101786904D01*
X135347146Y-101776960D01*
X135410702Y-101805985D01*
X135448476Y-101864763D01*
X135452114Y-101881215D01*
X135468605Y-101990619D01*
X135468606Y-101990623D01*
X135545938Y-102241326D01*
X135659767Y-102477696D01*
X135659768Y-102477697D01*
X135659770Y-102477700D01*
X135659772Y-102477704D01*
X135775654Y-102647671D01*
X135807567Y-102694479D01*
X135986014Y-102886801D01*
X135986018Y-102886804D01*
X135986019Y-102886805D01*
X136191143Y-103050386D01*
X136418357Y-103181568D01*
X136662584Y-103277420D01*
X136918370Y-103335802D01*
X136918376Y-103335802D01*
X136918379Y-103335803D01*
X137114500Y-103350500D01*
X137114506Y-103350500D01*
X137245500Y-103350500D01*
X137441620Y-103335803D01*
X137441622Y-103335802D01*
X137441630Y-103335802D01*
X137697416Y-103277420D01*
X137941643Y-103181568D01*
X138168857Y-103050386D01*
X138373981Y-102886805D01*
X138405167Y-102853195D01*
X138415446Y-102842116D01*
X138552433Y-102694479D01*
X138700228Y-102477704D01*
X138814063Y-102241323D01*
X138891396Y-101990615D01*
X138930500Y-101731182D01*
X138930500Y-101468818D01*
X138891396Y-101209385D01*
X138814063Y-100958677D01*
X138792796Y-100914516D01*
X138700232Y-100722303D01*
X138700231Y-100722302D01*
X138700230Y-100722301D01*
X138700228Y-100722296D01*
X138552433Y-100505521D01*
X138531132Y-100482564D01*
X138373985Y-100313198D01*
X138320286Y-100270375D01*
X138168857Y-100149614D01*
X137941643Y-100018432D01*
X137697416Y-99922580D01*
X137697411Y-99922578D01*
X137697402Y-99922576D01*
X137460303Y-99868460D01*
X137441630Y-99864198D01*
X137441629Y-99864197D01*
X137441625Y-99864197D01*
X137441620Y-99864196D01*
X137245500Y-99849500D01*
X137245494Y-99849500D01*
X137114506Y-99849500D01*
X137114500Y-99849500D01*
X136942361Y-99862399D01*
X136874038Y-99847779D01*
X136824465Y-99798542D01*
X136809382Y-99730320D01*
X136825706Y-99676749D01*
X136916426Y-99519619D01*
X136985222Y-99320846D01*
X137011919Y-99135167D01*
X138741833Y-99135167D01*
X138771910Y-99434142D01*
X138771911Y-99434149D01*
X138841568Y-99726441D01*
X138841571Y-99726453D01*
X138949566Y-100006853D01*
X138949573Y-100006868D01*
X139093979Y-100270375D01*
X139093983Y-100270381D01*
X139185296Y-100394312D01*
X139272223Y-100512290D01*
X139481121Y-100728289D01*
X139716946Y-100914518D01*
X139975487Y-101067652D01*
X140252133Y-101184960D01*
X140252136Y-101184960D01*
X140252139Y-101184962D01*
X140397039Y-101224653D01*
X140541946Y-101264348D01*
X140839755Y-101304400D01*
X140839760Y-101304400D01*
X141065041Y-101304400D01*
X141228513Y-101293456D01*
X141289819Y-101289352D01*
X141584287Y-101229499D01*
X141868151Y-101130931D01*
X142136343Y-100995407D01*
X142384080Y-100825346D01*
X142606939Y-100623782D01*
X142800943Y-100394312D01*
X142841998Y-100330000D01*
X149774341Y-100330000D01*
X149794936Y-100565403D01*
X149794938Y-100565413D01*
X149856094Y-100793655D01*
X149856096Y-100793659D01*
X149856097Y-100793663D01*
X149912452Y-100914516D01*
X149955965Y-101007830D01*
X149955967Y-101007834D01*
X150042161Y-101130931D01*
X150091505Y-101201401D01*
X150258599Y-101368495D01*
X150276267Y-101380866D01*
X150452165Y-101504032D01*
X150452167Y-101504033D01*
X150452170Y-101504035D01*
X150666337Y-101603903D01*
X150894592Y-101665063D01*
X151082918Y-101681539D01*
X151129999Y-101685659D01*
X151130000Y-101685659D01*
X151130001Y-101685659D01*
X151169234Y-101682226D01*
X151365408Y-101665063D01*
X151593663Y-101603903D01*
X151807830Y-101504035D01*
X152001401Y-101368495D01*
X152168495Y-101201401D01*
X152304035Y-101007830D01*
X152403903Y-100793663D01*
X152465063Y-100565408D01*
X152485659Y-100330000D01*
X152465063Y-100094592D01*
X152403903Y-99866337D01*
X152304035Y-99652171D01*
X152304034Y-99652169D01*
X152168496Y-99458600D01*
X152131765Y-99421869D01*
X152046567Y-99336671D01*
X152013084Y-99275351D01*
X152018068Y-99205659D01*
X152059939Y-99149725D01*
X152090915Y-99132810D01*
X152222331Y-99083796D01*
X152337546Y-98997546D01*
X152423796Y-98882331D01*
X152474091Y-98747483D01*
X152480500Y-98687873D01*
X152480499Y-96892128D01*
X152474091Y-96832517D01*
X152473394Y-96830649D01*
X152423797Y-96697671D01*
X152423793Y-96697664D01*
X152337547Y-96582455D01*
X152337544Y-96582452D01*
X152222335Y-96496206D01*
X152222328Y-96496202D01*
X152087482Y-96445908D01*
X152087483Y-96445908D01*
X152027883Y-96439501D01*
X152027881Y-96439500D01*
X152027873Y-96439500D01*
X152027864Y-96439500D01*
X150232129Y-96439500D01*
X150232123Y-96439501D01*
X150172516Y-96445908D01*
X150037671Y-96496202D01*
X150037664Y-96496206D01*
X149922455Y-96582452D01*
X149922452Y-96582455D01*
X149836206Y-96697664D01*
X149836202Y-96697671D01*
X149785908Y-96832517D01*
X149779675Y-96890501D01*
X149779501Y-96892123D01*
X149779500Y-96892135D01*
X149779500Y-98687870D01*
X149779501Y-98687876D01*
X149785908Y-98747483D01*
X149836202Y-98882328D01*
X149836206Y-98882335D01*
X149922452Y-98997544D01*
X149922455Y-98997547D01*
X150037664Y-99083793D01*
X150037671Y-99083797D01*
X150169081Y-99132810D01*
X150225015Y-99174681D01*
X150249432Y-99240145D01*
X150234580Y-99308418D01*
X150213430Y-99336673D01*
X150091503Y-99458600D01*
X149955965Y-99652169D01*
X149955964Y-99652171D01*
X149856098Y-99866335D01*
X149856094Y-99866344D01*
X149794938Y-100094586D01*
X149794936Y-100094596D01*
X149774341Y-100329999D01*
X149774341Y-100330000D01*
X142841998Y-100330000D01*
X142962631Y-100141032D01*
X143089118Y-99868460D01*
X143178146Y-99581462D01*
X143228126Y-99285158D01*
X143238167Y-98984836D01*
X143208089Y-98685855D01*
X143138430Y-98393551D01*
X143030431Y-98113140D01*
X142886021Y-97849625D01*
X142707777Y-97607710D01*
X142498879Y-97391711D01*
X142498872Y-97391705D01*
X142263055Y-97205483D01*
X142263056Y-97205483D01*
X142263054Y-97205482D01*
X142004513Y-97052348D01*
X141727867Y-96935040D01*
X141727860Y-96935037D01*
X141438059Y-96855653D01*
X141438056Y-96855652D01*
X141438054Y-96855652D01*
X141140245Y-96815600D01*
X140914967Y-96815600D01*
X140914959Y-96815600D01*
X140690183Y-96830647D01*
X140690174Y-96830649D01*
X140395710Y-96890501D01*
X140111847Y-96989069D01*
X140111844Y-96989071D01*
X139843662Y-97124589D01*
X139595918Y-97294655D01*
X139373062Y-97496216D01*
X139179058Y-97725686D01*
X139179056Y-97725688D01*
X139017366Y-97978972D01*
X138919298Y-98190305D01*
X138890882Y-98251540D01*
X138857771Y-98358276D01*
X138801854Y-98538535D01*
X138757895Y-98799148D01*
X138751874Y-98834842D01*
X138743551Y-99083796D01*
X138741833Y-99135167D01*
X137011919Y-99135167D01*
X137015157Y-99112645D01*
X137005148Y-98902541D01*
X136955558Y-98698129D01*
X136868179Y-98506795D01*
X136868175Y-98506789D01*
X136746173Y-98335460D01*
X136746167Y-98335454D01*
X136593939Y-98190305D01*
X136593937Y-98190303D01*
X136416986Y-98076584D01*
X136416984Y-98076583D01*
X136221721Y-97998410D01*
X136221714Y-97998407D01*
X136221712Y-97998407D01*
X136221709Y-97998406D01*
X136221708Y-97998406D01*
X136015172Y-97958600D01*
X136015171Y-97958600D01*
X135857532Y-97958600D01*
X135700611Y-97973584D01*
X135700607Y-97973585D01*
X135498791Y-98032843D01*
X135311831Y-98129228D01*
X135146490Y-98259252D01*
X135146489Y-98259253D01*
X135008749Y-98418214D01*
X135008740Y-98418225D01*
X134903574Y-98600379D01*
X134834779Y-98799148D01*
X134834778Y-98799153D01*
X134834778Y-98799154D01*
X134804843Y-99007355D01*
X134814852Y-99217459D01*
X134864442Y-99421871D01*
X134881216Y-99458600D01*
X134951820Y-99613204D01*
X134951823Y-99613208D01*
X135002948Y-99685004D01*
X135025800Y-99751031D01*
X135009327Y-99818931D01*
X134958759Y-99867146D01*
X134890152Y-99880368D01*
X134858607Y-99873112D01*
X134812482Y-99855908D01*
X134812483Y-99855908D01*
X134752883Y-99849501D01*
X134752881Y-99849500D01*
X134752873Y-99849500D01*
X134752865Y-99849500D01*
X132155048Y-99849500D01*
X132088009Y-99829815D01*
X132042666Y-99777905D01*
X132027911Y-99746264D01*
X131984035Y-99652171D01*
X131891222Y-99519620D01*
X131848496Y-99458600D01*
X131811765Y-99421869D01*
X131726567Y-99336671D01*
X131693084Y-99275351D01*
X131698068Y-99205659D01*
X131739939Y-99149725D01*
X131770915Y-99132810D01*
X131902331Y-99083796D01*
X132017546Y-98997546D01*
X132103796Y-98882331D01*
X132154091Y-98747483D01*
X132160500Y-98687873D01*
X132160499Y-96892128D01*
X132154091Y-96832517D01*
X132153394Y-96830649D01*
X132103797Y-96697671D01*
X132103793Y-96697664D01*
X132017547Y-96582455D01*
X132017544Y-96582452D01*
X131934119Y-96520000D01*
X143151418Y-96520000D01*
X143171715Y-96777898D01*
X143232102Y-97029430D01*
X143232106Y-97029442D01*
X143331102Y-97268441D01*
X143466267Y-97489009D01*
X143466270Y-97489014D01*
X143472423Y-97496218D01*
X143634276Y-97685724D01*
X143728057Y-97765820D01*
X143830985Y-97853729D01*
X143830990Y-97853732D01*
X144051558Y-97988897D01*
X144074525Y-97998410D01*
X144290560Y-98087895D01*
X144542105Y-98148285D01*
X144800000Y-98168582D01*
X145057895Y-98148285D01*
X145117554Y-98133962D01*
X145187336Y-98137453D01*
X145244154Y-98178117D01*
X145269967Y-98243043D01*
X145256581Y-98311618D01*
X145240214Y-98335738D01*
X145168753Y-98418208D01*
X145168740Y-98418225D01*
X145063574Y-98600379D01*
X144994779Y-98799148D01*
X144994778Y-98799153D01*
X144994778Y-98799154D01*
X144964843Y-99007355D01*
X144974852Y-99217459D01*
X145024442Y-99421871D01*
X145041216Y-99458600D01*
X145111820Y-99613204D01*
X145111824Y-99613210D01*
X145233826Y-99784539D01*
X145233831Y-99784544D01*
X145386063Y-99929697D01*
X145563014Y-100043416D01*
X145758288Y-100121593D01*
X145887084Y-100146416D01*
X145964828Y-100161400D01*
X145964829Y-100161400D01*
X146122461Y-100161400D01*
X146122468Y-100161400D01*
X146279389Y-100146416D01*
X146481211Y-100087156D01*
X146668170Y-99990771D01*
X146833510Y-99860747D01*
X146971255Y-99701781D01*
X147076426Y-99519619D01*
X147145222Y-99320846D01*
X147175157Y-99112645D01*
X147165148Y-98902541D01*
X147115558Y-98698129D01*
X147028179Y-98506795D01*
X147028175Y-98506789D01*
X146906173Y-98335460D01*
X146906167Y-98335454D01*
X146753939Y-98190305D01*
X146753937Y-98190303D01*
X146576986Y-98076584D01*
X146576984Y-98076583D01*
X146381721Y-97998410D01*
X146381714Y-97998407D01*
X146381712Y-97998407D01*
X146381709Y-97998406D01*
X146381708Y-97998406D01*
X146175172Y-97958600D01*
X146175171Y-97958600D01*
X146017532Y-97958600D01*
X145990441Y-97961186D01*
X145921836Y-97947963D01*
X145871269Y-97899747D01*
X145854797Y-97831847D01*
X145877650Y-97765820D01*
X145898122Y-97743460D01*
X145965724Y-97685724D01*
X146133731Y-97489012D01*
X146268897Y-97268441D01*
X146367895Y-97029440D01*
X146428285Y-96777895D01*
X146448582Y-96520000D01*
X146428285Y-96262105D01*
X146367895Y-96010560D01*
X146268897Y-95771559D01*
X146268897Y-95771558D01*
X146133732Y-95550990D01*
X146133729Y-95550985D01*
X146070067Y-95476447D01*
X145965724Y-95354276D01*
X145858181Y-95262426D01*
X145769014Y-95186270D01*
X145769009Y-95186267D01*
X145548441Y-95051102D01*
X145309442Y-94952106D01*
X145309444Y-94952106D01*
X145309440Y-94952105D01*
X145309436Y-94952104D01*
X145309430Y-94952102D01*
X145057898Y-94891715D01*
X144800000Y-94871418D01*
X144542101Y-94891715D01*
X144290569Y-94952102D01*
X144290557Y-94952106D01*
X144051558Y-95051102D01*
X143830990Y-95186267D01*
X143830985Y-95186270D01*
X143634276Y-95354276D01*
X143466270Y-95550985D01*
X143466267Y-95550990D01*
X143331102Y-95771558D01*
X143232106Y-96010557D01*
X143232102Y-96010569D01*
X143171715Y-96262101D01*
X143151418Y-96520000D01*
X131934119Y-96520000D01*
X131902335Y-96496206D01*
X131902328Y-96496202D01*
X131767482Y-96445908D01*
X131767483Y-96445908D01*
X131707883Y-96439501D01*
X131707881Y-96439500D01*
X131707873Y-96439500D01*
X131707864Y-96439500D01*
X129912129Y-96439500D01*
X129912123Y-96439501D01*
X129852516Y-96445908D01*
X129717671Y-96496202D01*
X129717664Y-96496206D01*
X129602455Y-96582452D01*
X129602452Y-96582455D01*
X129516206Y-96697664D01*
X129516202Y-96697671D01*
X129465908Y-96832517D01*
X129459675Y-96890501D01*
X129459501Y-96892123D01*
X129459500Y-96892135D01*
X129459500Y-98687870D01*
X129459501Y-98687876D01*
X129465908Y-98747483D01*
X129516202Y-98882328D01*
X129516206Y-98882335D01*
X129602452Y-98997544D01*
X129602455Y-98997547D01*
X129717664Y-99083793D01*
X129717671Y-99083797D01*
X129849081Y-99132810D01*
X129905015Y-99174681D01*
X129929432Y-99240145D01*
X129914580Y-99308418D01*
X129893430Y-99336673D01*
X129771503Y-99458600D01*
X129635965Y-99652169D01*
X129635964Y-99652171D01*
X129536098Y-99866335D01*
X129536094Y-99866344D01*
X129474938Y-100094586D01*
X129474936Y-100094596D01*
X129454341Y-100329999D01*
X129454341Y-100330000D01*
X128337539Y-100330000D01*
X128296463Y-99843014D01*
X128288481Y-99700867D01*
X128272497Y-99131210D01*
X128272498Y-98988789D01*
X128277819Y-98799148D01*
X128288481Y-98419120D01*
X128288533Y-98418208D01*
X128296462Y-98276993D01*
X128344368Y-97709047D01*
X128360308Y-97567583D01*
X128439976Y-97003263D01*
X128463821Y-96862922D01*
X128575008Y-96303947D01*
X128606694Y-96165123D01*
X128749036Y-95613305D01*
X128788465Y-95476447D01*
X128797246Y-95448897D01*
X128961532Y-94933455D01*
X129008539Y-94799118D01*
X129211797Y-94266639D01*
X129266266Y-94135136D01*
X129335685Y-93980000D01*
X136801418Y-93980000D01*
X136821715Y-94237898D01*
X136882102Y-94489430D01*
X136882106Y-94489442D01*
X136981102Y-94728441D01*
X137116267Y-94949009D01*
X137116270Y-94949014D01*
X137192426Y-95038181D01*
X137284276Y-95145724D01*
X137331750Y-95186270D01*
X137480985Y-95313729D01*
X137480990Y-95313732D01*
X137701558Y-95448897D01*
X137768070Y-95476447D01*
X137940560Y-95547895D01*
X138192105Y-95608285D01*
X138450000Y-95628582D01*
X138707895Y-95608285D01*
X138959440Y-95547895D01*
X139198441Y-95448897D01*
X139419012Y-95313731D01*
X139615724Y-95145724D01*
X139783731Y-94949012D01*
X139918897Y-94728441D01*
X140017895Y-94489440D01*
X140078285Y-94237895D01*
X140098582Y-93980000D01*
X140078285Y-93722105D01*
X140017895Y-93470560D01*
X139918897Y-93231559D01*
X139918897Y-93231558D01*
X139783732Y-93010990D01*
X139783729Y-93010985D01*
X139703468Y-92917012D01*
X139615724Y-92814276D01*
X139508181Y-92722426D01*
X139419014Y-92646270D01*
X139419009Y-92646267D01*
X139198441Y-92511102D01*
X138959442Y-92412106D01*
X138959444Y-92412106D01*
X138959440Y-92412105D01*
X138959436Y-92412104D01*
X138959430Y-92412102D01*
X138707898Y-92351715D01*
X138514473Y-92336492D01*
X138450000Y-92331418D01*
X138449999Y-92331418D01*
X138192101Y-92351715D01*
X137940569Y-92412102D01*
X137940557Y-92412106D01*
X137701558Y-92511102D01*
X137480990Y-92646267D01*
X137480985Y-92646270D01*
X137284276Y-92814276D01*
X137116270Y-93010985D01*
X137116267Y-93010990D01*
X136981102Y-93231558D01*
X136882106Y-93470557D01*
X136882102Y-93470569D01*
X136821715Y-93722101D01*
X136801418Y-93980000D01*
X129335685Y-93980000D01*
X129499057Y-93614901D01*
X129513772Y-93584343D01*
X129560823Y-93486639D01*
X129822429Y-92980252D01*
X129891268Y-92855697D01*
X130180854Y-92364778D01*
X130256596Y-92244238D01*
X130573231Y-91770359D01*
X130655593Y-91654281D01*
X130998305Y-91198896D01*
X131087096Y-91087558D01*
X131175841Y-90982462D01*
X131454764Y-90652151D01*
X131549657Y-90545966D01*
X131941167Y-90131851D01*
X132041851Y-90031167D01*
X132288618Y-89797870D01*
X138349500Y-89797870D01*
X138349501Y-89797876D01*
X138355908Y-89857483D01*
X138406202Y-89992328D01*
X138406206Y-89992335D01*
X138492452Y-90107544D01*
X138492455Y-90107547D01*
X138607664Y-90193793D01*
X138607671Y-90193797D01*
X138742517Y-90244091D01*
X138742516Y-90244091D01*
X138749444Y-90244835D01*
X138802127Y-90250500D01*
X140597872Y-90250499D01*
X140657483Y-90244091D01*
X140792331Y-90193796D01*
X140907546Y-90107546D01*
X140993796Y-89992331D01*
X141042810Y-89860916D01*
X141084681Y-89804984D01*
X141150145Y-89780566D01*
X141218418Y-89795417D01*
X141246673Y-89816569D01*
X141368599Y-89938495D01*
X141465384Y-90006264D01*
X141562165Y-90074032D01*
X141562167Y-90074033D01*
X141562170Y-90074035D01*
X141776337Y-90173903D01*
X142004592Y-90235063D01*
X142181034Y-90250500D01*
X142239999Y-90255659D01*
X142240000Y-90255659D01*
X142240001Y-90255659D01*
X142298966Y-90250500D01*
X142475408Y-90235063D01*
X142703663Y-90173903D01*
X142917830Y-90074035D01*
X143111401Y-89938495D01*
X143278495Y-89771401D01*
X143414035Y-89577830D01*
X143513903Y-89363663D01*
X143575063Y-89135408D01*
X143595659Y-88900000D01*
X143575063Y-88664592D01*
X143513903Y-88436337D01*
X143414035Y-88222171D01*
X143278495Y-88028599D01*
X143278494Y-88028597D01*
X143111402Y-87861506D01*
X143111395Y-87861501D01*
X142917834Y-87725967D01*
X142917830Y-87725965D01*
X142917828Y-87725964D01*
X142703663Y-87626097D01*
X142703659Y-87626096D01*
X142703655Y-87626094D01*
X142475413Y-87564938D01*
X142475403Y-87564936D01*
X142240001Y-87544341D01*
X142239999Y-87544341D01*
X142004596Y-87564936D01*
X142004586Y-87564938D01*
X141776344Y-87626094D01*
X141776335Y-87626098D01*
X141562171Y-87725964D01*
X141562169Y-87725965D01*
X141368600Y-87861503D01*
X141246673Y-87983430D01*
X141185350Y-88016914D01*
X141115658Y-88011930D01*
X141059725Y-87970058D01*
X141042810Y-87939081D01*
X140993797Y-87807671D01*
X140993793Y-87807664D01*
X140907547Y-87692455D01*
X140907544Y-87692452D01*
X140792335Y-87606206D01*
X140792328Y-87606202D01*
X140657482Y-87555908D01*
X140657483Y-87555908D01*
X140597883Y-87549501D01*
X140597881Y-87549500D01*
X140597873Y-87549500D01*
X140597864Y-87549500D01*
X138802129Y-87549500D01*
X138802123Y-87549501D01*
X138742516Y-87555908D01*
X138607671Y-87606202D01*
X138607664Y-87606206D01*
X138492455Y-87692452D01*
X138492452Y-87692455D01*
X138406206Y-87807664D01*
X138406202Y-87807671D01*
X138355908Y-87942517D01*
X138349501Y-88002116D01*
X138349500Y-88002135D01*
X138349500Y-89797870D01*
X132288618Y-89797870D01*
X132455977Y-89639646D01*
X132562151Y-89544764D01*
X132997558Y-89177096D01*
X133049826Y-89135413D01*
X133108896Y-89088305D01*
X133564281Y-88745593D01*
X133680359Y-88663231D01*
X134154243Y-88346592D01*
X134274778Y-88270854D01*
X134765697Y-87981268D01*
X134890252Y-87912429D01*
X135396639Y-87650823D01*
X135524901Y-87589057D01*
X135578801Y-87564938D01*
X136045136Y-87356266D01*
X136176639Y-87301797D01*
X136709118Y-87098539D01*
X136843455Y-87051532D01*
X137386484Y-86878453D01*
X137523296Y-86839039D01*
X138075152Y-86696686D01*
X138213947Y-86665008D01*
X138772922Y-86553821D01*
X138913263Y-86529976D01*
X139477602Y-86450305D01*
X139619047Y-86434368D01*
X140186993Y-86386462D01*
X140329109Y-86378481D01*
X140898790Y-86362498D01*
X141041210Y-86362498D01*
X141610890Y-86378481D01*
G37*
%TD.AperFunction*%
%TD*%
%TA.AperFunction,Conductor*%
%TO.N,GND*%
G36*
X141163039Y-121689685D02*
G01*
X141208794Y-121742489D01*
X141220000Y-121794000D01*
X141220000Y-122867924D01*
X141200315Y-122934963D01*
X141147511Y-122980718D01*
X141143454Y-122982485D01*
X141123571Y-122990720D01*
X141123570Y-122990721D01*
X141045486Y-123050637D01*
X140980317Y-123075831D01*
X140911872Y-123061792D01*
X140894514Y-123050637D01*
X140816429Y-122990721D01*
X140816428Y-122990720D01*
X140796546Y-122982485D01*
X140742143Y-122938643D01*
X140720079Y-122872349D01*
X140720000Y-122867924D01*
X140720000Y-121794000D01*
X140739685Y-121726961D01*
X140792489Y-121681206D01*
X140844000Y-121670000D01*
X141096000Y-121670000D01*
X141163039Y-121689685D01*
G37*
%TD.AperFunction*%
%TA.AperFunction,Conductor*%
G36*
X141610890Y-113048481D02*
G01*
X141753014Y-113056463D01*
X142320925Y-113104365D01*
X142462386Y-113120303D01*
X143026725Y-113199975D01*
X143167090Y-113223824D01*
X143726065Y-113335011D01*
X143864849Y-113366687D01*
X144379401Y-113499417D01*
X144416687Y-113509035D01*
X144553549Y-113548464D01*
X145096516Y-113721524D01*
X145230898Y-113768545D01*
X145763347Y-113971792D01*
X145894887Y-114026277D01*
X146217488Y-114170631D01*
X146415098Y-114259057D01*
X146543378Y-114320832D01*
X147049725Y-114582417D01*
X147174330Y-114651285D01*
X147665206Y-114940845D01*
X147739218Y-114987350D01*
X147785761Y-115016596D01*
X147920066Y-115106335D01*
X148259631Y-115333225D01*
X148261548Y-115334586D01*
X148375739Y-115415609D01*
X148831098Y-115758301D01*
X148868054Y-115787773D01*
X148942441Y-115847096D01*
X149377838Y-116214755D01*
X149484024Y-116309648D01*
X149800129Y-116608498D01*
X149898130Y-116701150D01*
X149998849Y-116801869D01*
X150390343Y-117215966D01*
X150485244Y-117322161D01*
X150852903Y-117757558D01*
X150941706Y-117868911D01*
X151284388Y-118324257D01*
X151366784Y-118440383D01*
X151683403Y-118914238D01*
X151759154Y-119034794D01*
X151874872Y-119230964D01*
X152048712Y-119525665D01*
X152117586Y-119650282D01*
X152241540Y-119890219D01*
X152379164Y-120156616D01*
X152440942Y-120284901D01*
X152673720Y-120805106D01*
X152728206Y-120936648D01*
X152931446Y-121469080D01*
X152978475Y-121603481D01*
X153151534Y-122146447D01*
X153190964Y-122283312D01*
X153333305Y-122835123D01*
X153364993Y-122973955D01*
X153476173Y-123532895D01*
X153500025Y-123673280D01*
X153579691Y-124237583D01*
X153595634Y-124379078D01*
X153643534Y-124946958D01*
X153651518Y-125089132D01*
X153669451Y-125728260D01*
X153669451Y-125731738D01*
X153651518Y-126370867D01*
X153643534Y-126513041D01*
X153595634Y-127080921D01*
X153579691Y-127222416D01*
X153500025Y-127786719D01*
X153476173Y-127927104D01*
X153364993Y-128486044D01*
X153333305Y-128624876D01*
X153190964Y-129176687D01*
X153151534Y-129313552D01*
X152978475Y-129856518D01*
X152931446Y-129990919D01*
X152728206Y-130523351D01*
X152673720Y-130654893D01*
X152440942Y-131175098D01*
X152379164Y-131303383D01*
X152117591Y-131809708D01*
X152048712Y-131934334D01*
X151759159Y-132425198D01*
X151683403Y-132545761D01*
X151366784Y-133019616D01*
X151284388Y-133135742D01*
X150941706Y-133591088D01*
X150852903Y-133702441D01*
X150485244Y-134137838D01*
X150390343Y-134244033D01*
X149998849Y-134658130D01*
X149898130Y-134758849D01*
X149484033Y-135150343D01*
X149377838Y-135245244D01*
X148942441Y-135612903D01*
X148831088Y-135701706D01*
X148375742Y-136044388D01*
X148259616Y-136126784D01*
X147785761Y-136443403D01*
X147665198Y-136519159D01*
X147174334Y-136808712D01*
X147049708Y-136877591D01*
X146543383Y-137139164D01*
X146415098Y-137200942D01*
X145894893Y-137433720D01*
X145763351Y-137488206D01*
X145230919Y-137691446D01*
X145096518Y-137738475D01*
X144553552Y-137911534D01*
X144416687Y-137950964D01*
X143864876Y-138093305D01*
X143726044Y-138124993D01*
X143167104Y-138236173D01*
X143026719Y-138260025D01*
X142462416Y-138339691D01*
X142320921Y-138355634D01*
X141753041Y-138403534D01*
X141610867Y-138411518D01*
X141041210Y-138427502D01*
X140898790Y-138427502D01*
X140329132Y-138411518D01*
X140186958Y-138403534D01*
X139619078Y-138355634D01*
X139477583Y-138339691D01*
X138913280Y-138260025D01*
X138772895Y-138236173D01*
X138213955Y-138124993D01*
X138075123Y-138093305D01*
X137523312Y-137950964D01*
X137386447Y-137911534D01*
X136843481Y-137738475D01*
X136709080Y-137691446D01*
X136176648Y-137488206D01*
X136143542Y-137474493D01*
X136045098Y-137433716D01*
X135524901Y-137200942D01*
X135396616Y-137139164D01*
X134890300Y-136877595D01*
X134800352Y-136827883D01*
X134765665Y-136808712D01*
X134274809Y-136519163D01*
X134205911Y-136475872D01*
X134154238Y-136443403D01*
X133680383Y-136126784D01*
X133667193Y-136117425D01*
X135229500Y-136117425D01*
X135244472Y-136274218D01*
X135303684Y-136475875D01*
X135353019Y-136571572D01*
X135399991Y-136662686D01*
X135529905Y-136827883D01*
X135529909Y-136827887D01*
X135688746Y-136965521D01*
X135870750Y-137070601D01*
X135870752Y-137070601D01*
X135870756Y-137070604D01*
X136069367Y-137139344D01*
X136277398Y-137169254D01*
X136487330Y-137159254D01*
X136691576Y-137109704D01*
X136777199Y-137070601D01*
X136882743Y-137022401D01*
X136882746Y-137022399D01*
X136882753Y-137022396D01*
X137053952Y-136900486D01*
X137075779Y-136877595D01*
X137198985Y-136748379D01*
X137254057Y-136662686D01*
X137312613Y-136571572D01*
X137390725Y-136376457D01*
X137430500Y-136170085D01*
X137430500Y-136117425D01*
X143869500Y-136117425D01*
X143884472Y-136274218D01*
X143943684Y-136475875D01*
X143993019Y-136571572D01*
X144039991Y-136662686D01*
X144169905Y-136827883D01*
X144169909Y-136827887D01*
X144328746Y-136965521D01*
X144510750Y-137070601D01*
X144510752Y-137070601D01*
X144510756Y-137070604D01*
X144709367Y-137139344D01*
X144917398Y-137169254D01*
X145127330Y-137159254D01*
X145331576Y-137109704D01*
X145417199Y-137070601D01*
X145522743Y-137022401D01*
X145522746Y-137022399D01*
X145522753Y-137022396D01*
X145693952Y-136900486D01*
X145715779Y-136877595D01*
X145838985Y-136748379D01*
X145894057Y-136662686D01*
X145952613Y-136571572D01*
X146030725Y-136376457D01*
X146070500Y-136170085D01*
X146070500Y-135412575D01*
X146055528Y-135255782D01*
X145996316Y-135054125D01*
X145900011Y-134867318D01*
X145900009Y-134867316D01*
X145900008Y-134867313D01*
X145770094Y-134702116D01*
X145770090Y-134702112D01*
X145611253Y-134564478D01*
X145429249Y-134459398D01*
X145429245Y-134459396D01*
X145429244Y-134459396D01*
X145230633Y-134390656D01*
X145022602Y-134360746D01*
X145022598Y-134360746D01*
X144812672Y-134370745D01*
X144608421Y-134420296D01*
X144608417Y-134420298D01*
X144417256Y-134507598D01*
X144417251Y-134507601D01*
X144246046Y-134629515D01*
X144246040Y-134629520D01*
X144101014Y-134781620D01*
X143987388Y-134958425D01*
X143909274Y-135153544D01*
X143889570Y-135255782D01*
X143869500Y-135359915D01*
X143869500Y-136117425D01*
X137430500Y-136117425D01*
X137430500Y-135412575D01*
X137415528Y-135255782D01*
X137356316Y-135054125D01*
X137260011Y-134867318D01*
X137260009Y-134867316D01*
X137260008Y-134867313D01*
X137130094Y-134702116D01*
X137130090Y-134702112D01*
X136971253Y-134564478D01*
X136789249Y-134459398D01*
X136789245Y-134459396D01*
X136789244Y-134459396D01*
X136590633Y-134390656D01*
X136382602Y-134360746D01*
X136382598Y-134360746D01*
X136172672Y-134370745D01*
X135968421Y-134420296D01*
X135968417Y-134420298D01*
X135777256Y-134507598D01*
X135777251Y-134507601D01*
X135606046Y-134629515D01*
X135606040Y-134629520D01*
X135461014Y-134781620D01*
X135347388Y-134958425D01*
X135269274Y-135153544D01*
X135249570Y-135255782D01*
X135229500Y-135359915D01*
X135229500Y-136117425D01*
X133667193Y-136117425D01*
X133564257Y-136044388D01*
X133108911Y-135701706D01*
X132997558Y-135612903D01*
X132562161Y-135245244D01*
X132455966Y-135150343D01*
X132156600Y-134867318D01*
X132041869Y-134758849D01*
X131941150Y-134658130D01*
X131798840Y-134507604D01*
X131549648Y-134244024D01*
X131454755Y-134137838D01*
X131087096Y-133702441D01*
X131027773Y-133628054D01*
X130998301Y-133591098D01*
X130655609Y-133135739D01*
X130601403Y-133059343D01*
X130573215Y-133019616D01*
X130281268Y-132582686D01*
X130256596Y-132545761D01*
X130227350Y-132499218D01*
X130180845Y-132425206D01*
X129952099Y-132037425D01*
X135229500Y-132037425D01*
X135244472Y-132194218D01*
X135303684Y-132395875D01*
X135353019Y-132491572D01*
X135399991Y-132582686D01*
X135529905Y-132747883D01*
X135529909Y-132747887D01*
X135688746Y-132885521D01*
X135870750Y-132990601D01*
X135870752Y-132990601D01*
X135870756Y-132990604D01*
X136069367Y-133059344D01*
X136277398Y-133089254D01*
X136487330Y-133079254D01*
X136691576Y-133029704D01*
X136777199Y-132990601D01*
X136882743Y-132942401D01*
X136882746Y-132942399D01*
X136882753Y-132942396D01*
X137053952Y-132820486D01*
X137123179Y-132747883D01*
X137154057Y-132715498D01*
X137198986Y-132668378D01*
X137223796Y-132629771D01*
X137276599Y-132584018D01*
X137345757Y-132574074D01*
X137403598Y-132598437D01*
X137457157Y-132639535D01*
X137457158Y-132639535D01*
X137457159Y-132639536D01*
X137603238Y-132700044D01*
X137720639Y-132715500D01*
X137720646Y-132715500D01*
X137799354Y-132715500D01*
X137799361Y-132715500D01*
X137916762Y-132700044D01*
X138062841Y-132639536D01*
X138188282Y-132543282D01*
X138284536Y-132417841D01*
X138345044Y-132271762D01*
X138355371Y-132193313D01*
X138383639Y-132129417D01*
X138441963Y-132090946D01*
X138478311Y-132085499D01*
X138597872Y-132085499D01*
X138597885Y-132085498D01*
X138636744Y-132081320D01*
X138663252Y-132081320D01*
X138702127Y-132085500D01*
X139097872Y-132085499D01*
X139097873Y-132085498D01*
X139097885Y-132085498D01*
X139136744Y-132081320D01*
X139163252Y-132081320D01*
X139202127Y-132085500D01*
X139597872Y-132085499D01*
X139597873Y-132085498D01*
X139597885Y-132085498D01*
X139636744Y-132081320D01*
X139663252Y-132081320D01*
X139702127Y-132085500D01*
X140097872Y-132085499D01*
X140097873Y-132085498D01*
X140097885Y-132085498D01*
X140136744Y-132081320D01*
X140163252Y-132081320D01*
X140202127Y-132085500D01*
X140597872Y-132085499D01*
X140597873Y-132085498D01*
X140597885Y-132085498D01*
X140636744Y-132081320D01*
X140663252Y-132081320D01*
X140702127Y-132085500D01*
X141097872Y-132085499D01*
X141097873Y-132085498D01*
X141097885Y-132085498D01*
X141136744Y-132081320D01*
X141163252Y-132081320D01*
X141202127Y-132085500D01*
X141597872Y-132085499D01*
X141597873Y-132085498D01*
X141597885Y-132085498D01*
X141636744Y-132081320D01*
X141663252Y-132081320D01*
X141702127Y-132085500D01*
X142097872Y-132085499D01*
X142097873Y-132085498D01*
X142097885Y-132085498D01*
X142136744Y-132081320D01*
X142163252Y-132081320D01*
X142202127Y-132085500D01*
X142597872Y-132085499D01*
X142597873Y-132085498D01*
X142597885Y-132085498D01*
X142636744Y-132081320D01*
X142663252Y-132081320D01*
X142702127Y-132085500D01*
X142821689Y-132085499D01*
X142888728Y-132105183D01*
X142934483Y-132157987D01*
X142944628Y-132193313D01*
X142954956Y-132271762D01*
X143015464Y-132417841D01*
X143111718Y-132543282D01*
X143237159Y-132639536D01*
X143383238Y-132700044D01*
X143500639Y-132715500D01*
X143500646Y-132715500D01*
X143579354Y-132715500D01*
X143579361Y-132715500D01*
X143696762Y-132700044D01*
X143842841Y-132639536D01*
X143896466Y-132598387D01*
X143961635Y-132573193D01*
X144030080Y-132587231D01*
X144069423Y-132620111D01*
X144169905Y-132747883D01*
X144169909Y-132747887D01*
X144328746Y-132885521D01*
X144510750Y-132990601D01*
X144510752Y-132990601D01*
X144510756Y-132990604D01*
X144709367Y-133059344D01*
X144917398Y-133089254D01*
X145127330Y-133079254D01*
X145331576Y-133029704D01*
X145417199Y-132990601D01*
X145522743Y-132942401D01*
X145522746Y-132942399D01*
X145522753Y-132942396D01*
X145693952Y-132820486D01*
X145763179Y-132747883D01*
X145838985Y-132668379D01*
X145838986Y-132668378D01*
X145952613Y-132491572D01*
X146030725Y-132296457D01*
X146070500Y-132090085D01*
X146070500Y-131132575D01*
X146055528Y-130975782D01*
X145996316Y-130774125D01*
X145900011Y-130587318D01*
X145900009Y-130587316D01*
X145900008Y-130587313D01*
X145770094Y-130422116D01*
X145770090Y-130422112D01*
X145611253Y-130284478D01*
X145429249Y-130179398D01*
X145429245Y-130179396D01*
X145429244Y-130179396D01*
X145230633Y-130110656D01*
X145022602Y-130080746D01*
X145022598Y-130080746D01*
X144812671Y-130090745D01*
X144734537Y-130109700D01*
X144664746Y-130106375D01*
X144607832Y-130065845D01*
X144596472Y-130048623D01*
X144593350Y-130042906D01*
X144507190Y-129927812D01*
X144507187Y-129927809D01*
X144392093Y-129841649D01*
X144392086Y-129841645D01*
X144257379Y-129791403D01*
X144257372Y-129791401D01*
X144197844Y-129785000D01*
X144150000Y-129785000D01*
X144150000Y-130400604D01*
X144130315Y-130467643D01*
X144115745Y-130486172D01*
X144101014Y-130501621D01*
X144101010Y-130501626D01*
X144078814Y-130536165D01*
X144026010Y-130581920D01*
X143956852Y-130591863D01*
X143893296Y-130562838D01*
X143855522Y-130504059D01*
X143850499Y-130469125D01*
X143850499Y-130237129D01*
X143850498Y-130237118D01*
X143850000Y-130232487D01*
X143849474Y-130227598D01*
X143844091Y-130177517D01*
X143830209Y-130140298D01*
X143793797Y-130042671D01*
X143793793Y-130042664D01*
X143707814Y-129927812D01*
X143707546Y-129927454D01*
X143599687Y-129846711D01*
X143563888Y-129798888D01*
X143550000Y-129785000D01*
X143502165Y-129785000D01*
X143465598Y-129788931D01*
X143439092Y-129788931D01*
X143397875Y-129784500D01*
X143397873Y-129784500D01*
X143097880Y-129784500D01*
X143097873Y-129784500D01*
X142702130Y-129784500D01*
X142702119Y-129784501D01*
X142663253Y-129788679D01*
X142636748Y-129788679D01*
X142597874Y-129784500D01*
X142202130Y-129784500D01*
X142202119Y-129784501D01*
X142163253Y-129788679D01*
X142136748Y-129788679D01*
X142097874Y-129784500D01*
X141702130Y-129784500D01*
X141702119Y-129784501D01*
X141663253Y-129788679D01*
X141636748Y-129788679D01*
X141597874Y-129784500D01*
X141202130Y-129784500D01*
X141202119Y-129784501D01*
X141163253Y-129788679D01*
X141136748Y-129788679D01*
X141097874Y-129784500D01*
X140702130Y-129784500D01*
X140702119Y-129784501D01*
X140663253Y-129788679D01*
X140636748Y-129788679D01*
X140597874Y-129784500D01*
X140202130Y-129784500D01*
X140202119Y-129784501D01*
X140163253Y-129788679D01*
X140136748Y-129788679D01*
X140097874Y-129784500D01*
X139702130Y-129784500D01*
X139702119Y-129784501D01*
X139663253Y-129788679D01*
X139636748Y-129788679D01*
X139597874Y-129784500D01*
X139202130Y-129784500D01*
X139202119Y-129784501D01*
X139163253Y-129788679D01*
X139136748Y-129788679D01*
X139097874Y-129784500D01*
X138702130Y-129784500D01*
X138702119Y-129784501D01*
X138663253Y-129788679D01*
X138636748Y-129788679D01*
X138597875Y-129784500D01*
X138597873Y-129784500D01*
X138297880Y-129784500D01*
X138297873Y-129784500D01*
X137902132Y-129784500D01*
X137902117Y-129784501D01*
X137860904Y-129788931D01*
X137834402Y-129788931D01*
X137797834Y-129785000D01*
X137750000Y-129785000D01*
X137734388Y-129800611D01*
X137730315Y-129814485D01*
X137700313Y-129846710D01*
X137592454Y-129927454D01*
X137592453Y-129927455D01*
X137592452Y-129927456D01*
X137506206Y-130042664D01*
X137506202Y-130042671D01*
X137455909Y-130177516D01*
X137450000Y-130232476D01*
X137449500Y-130237123D01*
X137449500Y-130469998D01*
X137429815Y-130537037D01*
X137377011Y-130582792D01*
X137307853Y-130592736D01*
X137244297Y-130563711D01*
X137228030Y-130546650D01*
X137176530Y-130481163D01*
X137150562Y-130416298D01*
X137150000Y-130404511D01*
X137150000Y-129785000D01*
X137102155Y-129785000D01*
X137042627Y-129791401D01*
X137042620Y-129791403D01*
X136907913Y-129841645D01*
X136907906Y-129841649D01*
X136792813Y-129927809D01*
X136706640Y-130042921D01*
X136705156Y-130045639D01*
X136702969Y-130047825D01*
X136701333Y-130050011D01*
X136701018Y-130049775D01*
X136655745Y-130095039D01*
X136587471Y-130109883D01*
X136578685Y-130108938D01*
X136526455Y-130101428D01*
X136382602Y-130080746D01*
X136382599Y-130080746D01*
X136172672Y-130090745D01*
X135968421Y-130140296D01*
X135968417Y-130140298D01*
X135777256Y-130227598D01*
X135777251Y-130227601D01*
X135606046Y-130349515D01*
X135606040Y-130349520D01*
X135461014Y-130501620D01*
X135347388Y-130678425D01*
X135269274Y-130873544D01*
X135249570Y-130975782D01*
X135229500Y-131079915D01*
X135229500Y-132037425D01*
X129952099Y-132037425D01*
X129891285Y-131934330D01*
X129822417Y-131809725D01*
X129560832Y-131303378D01*
X129499057Y-131175098D01*
X129409866Y-130975778D01*
X129266277Y-130654887D01*
X129211787Y-130523335D01*
X129204429Y-130504059D01*
X129008545Y-129990898D01*
X128961524Y-129856516D01*
X128788464Y-129313549D01*
X128749035Y-129176687D01*
X128606694Y-128624876D01*
X128575011Y-128486065D01*
X128463824Y-127927090D01*
X128439974Y-127786719D01*
X128360307Y-127222409D01*
X128349962Y-127130593D01*
X128344365Y-127080925D01*
X128337539Y-127000000D01*
X129454341Y-127000000D01*
X129474936Y-127235403D01*
X129474938Y-127235413D01*
X129536094Y-127463655D01*
X129536096Y-127463659D01*
X129536097Y-127463663D01*
X129582107Y-127562331D01*
X129635965Y-127677830D01*
X129635967Y-127677834D01*
X129712201Y-127786706D01*
X129771505Y-127871401D01*
X129938599Y-128038495D01*
X130010129Y-128088581D01*
X130132165Y-128174032D01*
X130132167Y-128174033D01*
X130132170Y-128174035D01*
X130346337Y-128273903D01*
X130574592Y-128335063D01*
X130762918Y-128351539D01*
X130809999Y-128355659D01*
X130810000Y-128355659D01*
X130810001Y-128355659D01*
X130849234Y-128352226D01*
X131045408Y-128335063D01*
X131273663Y-128273903D01*
X131487830Y-128174035D01*
X131681401Y-128038495D01*
X131848495Y-127871401D01*
X131984035Y-127677830D01*
X132081941Y-127467870D01*
X136629500Y-127467870D01*
X136629501Y-127467876D01*
X136635908Y-127527483D01*
X136686202Y-127662328D01*
X136686206Y-127662335D01*
X136772452Y-127777544D01*
X136772455Y-127777547D01*
X136887664Y-127863793D01*
X136887671Y-127863797D01*
X136932618Y-127880560D01*
X137022517Y-127914091D01*
X137082127Y-127920500D01*
X137577872Y-127920499D01*
X137637483Y-127914091D01*
X137772331Y-127863796D01*
X137887546Y-127777546D01*
X137973796Y-127662331D01*
X138024091Y-127527483D01*
X138030500Y-127467873D01*
X138030499Y-127130593D01*
X138564500Y-127130593D01*
X138564501Y-127629405D01*
X138567234Y-127664152D01*
X138567234Y-127664155D01*
X138567235Y-127664156D01*
X138610445Y-127812887D01*
X138636678Y-127857245D01*
X138689282Y-127946194D01*
X138689289Y-127946203D01*
X138798796Y-128055710D01*
X138798800Y-128055713D01*
X138798802Y-128055715D01*
X138932113Y-128134555D01*
X139080844Y-128177765D01*
X139104011Y-128179588D01*
X139115593Y-128180500D01*
X139115594Y-128180499D01*
X139115595Y-128180500D01*
X139348650Y-128180499D01*
X139464405Y-128180499D01*
X139471354Y-128179952D01*
X139499156Y-128177765D01*
X139647887Y-128134555D01*
X139781198Y-128055715D01*
X139890715Y-127946198D01*
X139969555Y-127812887D01*
X140012765Y-127664156D01*
X140015500Y-127629405D01*
X140015499Y-127367870D01*
X140639500Y-127367870D01*
X140639501Y-127367876D01*
X140645908Y-127427483D01*
X140696202Y-127562328D01*
X140696206Y-127562335D01*
X140782452Y-127677544D01*
X140782455Y-127677547D01*
X140897664Y-127763793D01*
X140897671Y-127763797D01*
X140934529Y-127777544D01*
X141032517Y-127814091D01*
X141092127Y-127820500D01*
X141587872Y-127820499D01*
X141647483Y-127814091D01*
X141782331Y-127763796D01*
X141897546Y-127677546D01*
X141904956Y-127667646D01*
X141960883Y-127625777D01*
X142030574Y-127620790D01*
X142091899Y-127654271D01*
X142123298Y-127707362D01*
X142147129Y-127789387D01*
X142147131Y-127789393D01*
X142228863Y-127927595D01*
X142228869Y-127927603D01*
X142342396Y-128041130D01*
X142342400Y-128041133D01*
X142342402Y-128041135D01*
X142480607Y-128122869D01*
X142520824Y-128134553D01*
X142634791Y-128167664D01*
X142634794Y-128167664D01*
X142634796Y-128167665D01*
X142646803Y-128168609D01*
X142670817Y-128170500D01*
X142670818Y-128170499D01*
X142670819Y-128170500D01*
X142936746Y-128170499D01*
X143069181Y-128170499D01*
X143076384Y-128169932D01*
X143105204Y-128167665D01*
X143259393Y-128122869D01*
X143317369Y-128088581D01*
X143385093Y-128071398D01*
X143443612Y-128088581D01*
X143500805Y-128122404D01*
X143640000Y-128162844D01*
X143640000Y-127607973D01*
X143640191Y-127603106D01*
X143640436Y-127600000D01*
X144140000Y-127600000D01*
X144140000Y-128162843D01*
X144279194Y-128122404D01*
X144417285Y-128040738D01*
X144417294Y-128040731D01*
X144530731Y-127927294D01*
X144530738Y-127927285D01*
X144612406Y-127789191D01*
X144612407Y-127789188D01*
X144657166Y-127635128D01*
X144657167Y-127635122D01*
X144659931Y-127600000D01*
X144140000Y-127600000D01*
X143640436Y-127600000D01*
X143640500Y-127599183D01*
X143640499Y-127100820D01*
X143640191Y-127096906D01*
X143640000Y-127092041D01*
X143640000Y-126663653D01*
X143644923Y-126629060D01*
X143657665Y-126585204D01*
X143660436Y-126550000D01*
X144160000Y-126550000D01*
X144160000Y-127100000D01*
X144659931Y-127100000D01*
X144657167Y-127064877D01*
X144657166Y-127064871D01*
X144638319Y-127000000D01*
X149774341Y-127000000D01*
X149794936Y-127235403D01*
X149794938Y-127235413D01*
X149856094Y-127463655D01*
X149856096Y-127463659D01*
X149856097Y-127463663D01*
X149902107Y-127562331D01*
X149955965Y-127677830D01*
X149955967Y-127677834D01*
X150032201Y-127786706D01*
X150091505Y-127871401D01*
X150258599Y-128038495D01*
X150330129Y-128088581D01*
X150452165Y-128174032D01*
X150452167Y-128174033D01*
X150452170Y-128174035D01*
X150666337Y-128273903D01*
X150894592Y-128335063D01*
X151082918Y-128351539D01*
X151129999Y-128355659D01*
X151130000Y-128355659D01*
X151130001Y-128355659D01*
X151169234Y-128352226D01*
X151365408Y-128335063D01*
X151593663Y-128273903D01*
X151807830Y-128174035D01*
X152001401Y-128038495D01*
X152168495Y-127871401D01*
X152304035Y-127677830D01*
X152403903Y-127463663D01*
X152465063Y-127235408D01*
X152485659Y-127000000D01*
X152465063Y-126764592D01*
X152407345Y-126549183D01*
X152403905Y-126536344D01*
X152403904Y-126536343D01*
X152403903Y-126536337D01*
X152304035Y-126322171D01*
X152223652Y-126207372D01*
X152168496Y-126128600D01*
X152117661Y-126077765D01*
X152046567Y-126006671D01*
X152013084Y-125945351D01*
X152018068Y-125875659D01*
X152059939Y-125819725D01*
X152090915Y-125802810D01*
X152222331Y-125753796D01*
X152337546Y-125667546D01*
X152423796Y-125552331D01*
X152474091Y-125417483D01*
X152480500Y-125357873D01*
X152480499Y-123562128D01*
X152474091Y-123502517D01*
X152463559Y-123474280D01*
X152423797Y-123367671D01*
X152423793Y-123367664D01*
X152337547Y-123252455D01*
X152337544Y-123252452D01*
X152222335Y-123166206D01*
X152222328Y-123166202D01*
X152087482Y-123115908D01*
X152087483Y-123115908D01*
X152027883Y-123109501D01*
X152027881Y-123109500D01*
X152027873Y-123109500D01*
X152027864Y-123109500D01*
X150232129Y-123109500D01*
X150232123Y-123109501D01*
X150172516Y-123115908D01*
X150037671Y-123166202D01*
X150037664Y-123166206D01*
X149922455Y-123252452D01*
X149922452Y-123252455D01*
X149836206Y-123367664D01*
X149836202Y-123367671D01*
X149785908Y-123502517D01*
X149780083Y-123556705D01*
X149779501Y-123562123D01*
X149779500Y-123562135D01*
X149779500Y-125357870D01*
X149779501Y-125357876D01*
X149785908Y-125417483D01*
X149836202Y-125552328D01*
X149836206Y-125552335D01*
X149922452Y-125667544D01*
X149922455Y-125667547D01*
X150037664Y-125753793D01*
X150037671Y-125753797D01*
X150169081Y-125802810D01*
X150225015Y-125844681D01*
X150249432Y-125910145D01*
X150234580Y-125978418D01*
X150213430Y-126006673D01*
X150091503Y-126128600D01*
X149955965Y-126322169D01*
X149955964Y-126322171D01*
X149856098Y-126536335D01*
X149856094Y-126536344D01*
X149794938Y-126764586D01*
X149794936Y-126764596D01*
X149774341Y-126999999D01*
X149774341Y-127000000D01*
X144638319Y-127000000D01*
X144612407Y-126910810D01*
X144612406Y-126910807D01*
X144608992Y-126905035D01*
X144591806Y-126837312D01*
X144608990Y-126778786D01*
X144632406Y-126739192D01*
X144632407Y-126739189D01*
X144677166Y-126585128D01*
X144677167Y-126585122D01*
X144679931Y-126550000D01*
X144160000Y-126550000D01*
X143660436Y-126550000D01*
X143660500Y-126549181D01*
X143660499Y-126050820D01*
X143660434Y-126050000D01*
X144160000Y-126050000D01*
X144679931Y-126050000D01*
X144677167Y-126014877D01*
X144677166Y-126014871D01*
X144632407Y-125860811D01*
X144632406Y-125860808D01*
X144550738Y-125722714D01*
X144550731Y-125722705D01*
X144437294Y-125609268D01*
X144437285Y-125609261D01*
X144299191Y-125527593D01*
X144299188Y-125527591D01*
X144160001Y-125487153D01*
X144160000Y-125487154D01*
X144160000Y-126050000D01*
X143660434Y-126050000D01*
X143660190Y-126046903D01*
X143660000Y-126042041D01*
X143660000Y-125487154D01*
X143659998Y-125487153D01*
X143520811Y-125527591D01*
X143520810Y-125527592D01*
X143463611Y-125561419D01*
X143395886Y-125578600D01*
X143337371Y-125561419D01*
X143321999Y-125552328D01*
X143279393Y-125527131D01*
X143279392Y-125527130D01*
X143279391Y-125527130D01*
X143279388Y-125527129D01*
X143125208Y-125482335D01*
X143125202Y-125482334D01*
X143089183Y-125479500D01*
X143089181Y-125479500D01*
X142823424Y-125479500D01*
X142690819Y-125479501D01*
X142654794Y-125482335D01*
X142500611Y-125527129D01*
X142500606Y-125527131D01*
X142362404Y-125608863D01*
X142362400Y-125608866D01*
X142251681Y-125719585D01*
X142190358Y-125753069D01*
X142120666Y-125748085D01*
X142064733Y-125706213D01*
X142040316Y-125640749D01*
X142040000Y-125631903D01*
X142040000Y-125472172D01*
X142039999Y-125472155D01*
X142033598Y-125412627D01*
X142033596Y-125412620D01*
X141983354Y-125277913D01*
X141983350Y-125277906D01*
X141897190Y-125162812D01*
X141897187Y-125162809D01*
X141782093Y-125076649D01*
X141782086Y-125076645D01*
X141647379Y-125026403D01*
X141647372Y-125026401D01*
X141587844Y-125020000D01*
X141540000Y-125020000D01*
X141540000Y-125836000D01*
X141520315Y-125903039D01*
X141467511Y-125948794D01*
X141416000Y-125960000D01*
X140640000Y-125960000D01*
X140640000Y-126047844D01*
X140646401Y-126107372D01*
X140646403Y-126107379D01*
X140696645Y-126242086D01*
X140696646Y-126242088D01*
X140773890Y-126345272D01*
X140798307Y-126410736D01*
X140783456Y-126479009D01*
X140773890Y-126493894D01*
X140696204Y-126597669D01*
X140696202Y-126597671D01*
X140656437Y-126704289D01*
X140645909Y-126732517D01*
X140639500Y-126792127D01*
X140639500Y-126792134D01*
X140639500Y-126792135D01*
X140639500Y-127367870D01*
X140015499Y-127367870D01*
X140015499Y-127130596D01*
X140012765Y-127095844D01*
X139969555Y-126947113D01*
X139901783Y-126832517D01*
X139890717Y-126813805D01*
X139890710Y-126813796D01*
X139781203Y-126704289D01*
X139781194Y-126704282D01*
X139700111Y-126656330D01*
X139647887Y-126625445D01*
X139499156Y-126582235D01*
X139499153Y-126582234D01*
X139499151Y-126582234D01*
X139464407Y-126579500D01*
X139464405Y-126579500D01*
X139231914Y-126579500D01*
X139115595Y-126579501D01*
X139080847Y-126582234D01*
X139070621Y-126585205D01*
X138932113Y-126625445D01*
X138932111Y-126625445D01*
X138932111Y-126625446D01*
X138798805Y-126704282D01*
X138798796Y-126704289D01*
X138689289Y-126813796D01*
X138689282Y-126813805D01*
X138610446Y-126947111D01*
X138610445Y-126947113D01*
X138595080Y-127000000D01*
X138567234Y-127095847D01*
X138567234Y-127095849D01*
X138564500Y-127130593D01*
X138030499Y-127130593D01*
X138030499Y-126892128D01*
X138025101Y-126841909D01*
X138024091Y-126832516D01*
X137973797Y-126697671D01*
X137973795Y-126697668D01*
X137896109Y-126593893D01*
X137871692Y-126528430D01*
X137886543Y-126460157D01*
X137896110Y-126445271D01*
X137973352Y-126342089D01*
X137973354Y-126342086D01*
X138023596Y-126207379D01*
X138023598Y-126207372D01*
X138029999Y-126147844D01*
X138030000Y-126147827D01*
X138030000Y-126060000D01*
X136630000Y-126060000D01*
X136630000Y-126147844D01*
X136636401Y-126207372D01*
X136636403Y-126207379D01*
X136686645Y-126342086D01*
X136686646Y-126342088D01*
X136763890Y-126445272D01*
X136788307Y-126510736D01*
X136773456Y-126579009D01*
X136763890Y-126593894D01*
X136686204Y-126697669D01*
X136686202Y-126697671D01*
X136642891Y-126813796D01*
X136635909Y-126832517D01*
X136629500Y-126892127D01*
X136629500Y-126892134D01*
X136629500Y-126892135D01*
X136629500Y-127467870D01*
X132081941Y-127467870D01*
X132083903Y-127463663D01*
X132145063Y-127235408D01*
X132165659Y-127000000D01*
X132145063Y-126764592D01*
X132087345Y-126549183D01*
X132083905Y-126536344D01*
X132083904Y-126536343D01*
X132083903Y-126536337D01*
X131984035Y-126322171D01*
X131903652Y-126207372D01*
X131848496Y-126128600D01*
X131797661Y-126077765D01*
X131726567Y-126006671D01*
X131693084Y-125945351D01*
X131698068Y-125875659D01*
X131739939Y-125819725D01*
X131770915Y-125802810D01*
X131902331Y-125753796D01*
X132017546Y-125667546D01*
X132103796Y-125552331D01*
X132154091Y-125417483D01*
X132160500Y-125357873D01*
X132160499Y-124447870D01*
X136559500Y-124447870D01*
X136559501Y-124447876D01*
X136565908Y-124507483D01*
X136616202Y-124642328D01*
X136616206Y-124642335D01*
X136702452Y-124757544D01*
X136702455Y-124757547D01*
X136817664Y-124843793D01*
X136817671Y-124843797D01*
X136952513Y-124894090D01*
X136952514Y-124894090D01*
X136952517Y-124894091D01*
X136968686Y-124895829D01*
X137033235Y-124922565D01*
X137073084Y-124979956D01*
X137075580Y-125049781D01*
X137039929Y-125109871D01*
X136998765Y-125135300D01*
X136887912Y-125176646D01*
X136887906Y-125176649D01*
X136772812Y-125262809D01*
X136772809Y-125262812D01*
X136686649Y-125377906D01*
X136686645Y-125377913D01*
X136636403Y-125512620D01*
X136636401Y-125512627D01*
X136630000Y-125572155D01*
X136630000Y-125660000D01*
X138030000Y-125660000D01*
X138030000Y-125572172D01*
X138029999Y-125572155D01*
X138023598Y-125512627D01*
X138023596Y-125512620D01*
X137973354Y-125377913D01*
X137973350Y-125377906D01*
X137887190Y-125262812D01*
X137887187Y-125262809D01*
X137772093Y-125176649D01*
X137772086Y-125176645D01*
X137637379Y-125126403D01*
X137637372Y-125126401D01*
X137621371Y-125124681D01*
X137556820Y-125097943D01*
X137516972Y-125040550D01*
X137514479Y-124970725D01*
X137550132Y-124910636D01*
X137591294Y-124885210D01*
X137702331Y-124843796D01*
X137817546Y-124757546D01*
X137903796Y-124642331D01*
X137954091Y-124507483D01*
X137960500Y-124447873D01*
X137960499Y-123872128D01*
X137954091Y-123812517D01*
X137903796Y-123677669D01*
X137826109Y-123573893D01*
X137801692Y-123508430D01*
X137816543Y-123440157D01*
X137826110Y-123425271D01*
X137903352Y-123322089D01*
X137903355Y-123322084D01*
X137940297Y-123223037D01*
X137982167Y-123167103D01*
X138047632Y-123142685D01*
X138115905Y-123157536D01*
X138165311Y-123206941D01*
X138171040Y-123218916D01*
X138184932Y-123252455D01*
X138190721Y-123266429D01*
X138280964Y-123384036D01*
X138398571Y-123474279D01*
X138535528Y-123531009D01*
X138645599Y-123545500D01*
X139220500Y-123545499D01*
X139287539Y-123565183D01*
X139333294Y-123617987D01*
X139344500Y-123669499D01*
X139344500Y-124244403D01*
X139356995Y-124339317D01*
X139346229Y-124408352D01*
X139299848Y-124460607D01*
X139234057Y-124479500D01*
X139115596Y-124479501D01*
X139115595Y-124479501D01*
X139080847Y-124482234D01*
X139080843Y-124482235D01*
X139080844Y-124482235D01*
X138932113Y-124525445D01*
X138932111Y-124525445D01*
X138932111Y-124525446D01*
X138798805Y-124604282D01*
X138798796Y-124604289D01*
X138689289Y-124713796D01*
X138689282Y-124713805D01*
X138610446Y-124847111D01*
X138567234Y-124995847D01*
X138567234Y-124995849D01*
X138564500Y-125030593D01*
X138564501Y-125529405D01*
X138567234Y-125564152D01*
X138567234Y-125564155D01*
X138567235Y-125564156D01*
X138610445Y-125712887D01*
X138631261Y-125748085D01*
X138689282Y-125846194D01*
X138689289Y-125846203D01*
X138798796Y-125955710D01*
X138798805Y-125955717D01*
X138808592Y-125961505D01*
X138932113Y-126034555D01*
X139080844Y-126077765D01*
X139104011Y-126079588D01*
X139115593Y-126080500D01*
X139115594Y-126080499D01*
X139115595Y-126080500D01*
X139347968Y-126080499D01*
X139464405Y-126080499D01*
X139471354Y-126079952D01*
X139499156Y-126077765D01*
X139647887Y-126034555D01*
X139781198Y-125955715D01*
X139890715Y-125846198D01*
X139969555Y-125712887D01*
X140012765Y-125564156D01*
X140013092Y-125560000D01*
X140640000Y-125560000D01*
X141140000Y-125560000D01*
X141140000Y-125020000D01*
X141092155Y-125020000D01*
X141032627Y-125026401D01*
X141032620Y-125026403D01*
X140897913Y-125076645D01*
X140897906Y-125076649D01*
X140782812Y-125162809D01*
X140782809Y-125162812D01*
X140696649Y-125277906D01*
X140696645Y-125277913D01*
X140646403Y-125412620D01*
X140646401Y-125412627D01*
X140640000Y-125472155D01*
X140640000Y-125560000D01*
X140013092Y-125560000D01*
X140015500Y-125529405D01*
X140015499Y-125030596D01*
X140012765Y-124995844D01*
X139992086Y-124924665D01*
X139992285Y-124854797D01*
X140030227Y-124796127D01*
X140093866Y-124767283D01*
X140094978Y-124767132D01*
X140106493Y-124765615D01*
X140179472Y-124756009D01*
X140179475Y-124756007D01*
X140187326Y-124753905D01*
X140188210Y-124757207D01*
X140241925Y-124751392D01*
X140252514Y-124754501D01*
X140252674Y-124753905D01*
X140260524Y-124756008D01*
X140260526Y-124756008D01*
X140260528Y-124756009D01*
X140370599Y-124770500D01*
X140569400Y-124770499D01*
X140569401Y-124770499D01*
X140598828Y-124766625D01*
X140679472Y-124756009D01*
X140679475Y-124756007D01*
X140687326Y-124753905D01*
X140688158Y-124757012D01*
X140742583Y-124751122D01*
X140752623Y-124754122D01*
X140752812Y-124753419D01*
X140760665Y-124755523D01*
X140844998Y-124766625D01*
X140845000Y-124766624D01*
X140845000Y-124738505D01*
X140864685Y-124671466D01*
X140893469Y-124640163D01*
X140894475Y-124639391D01*
X140959630Y-124614171D01*
X141028081Y-124628181D01*
X141045515Y-124639385D01*
X141046529Y-124640162D01*
X141087707Y-124696606D01*
X141095000Y-124738505D01*
X141095000Y-124766624D01*
X141179343Y-124755521D01*
X141187195Y-124753418D01*
X141188165Y-124757041D01*
X141240116Y-124750919D01*
X141252518Y-124754494D01*
X141252677Y-124753905D01*
X141260526Y-124756008D01*
X141260528Y-124756009D01*
X141370599Y-124770500D01*
X141569400Y-124770499D01*
X141569401Y-124770499D01*
X141598828Y-124766625D01*
X141679472Y-124756009D01*
X141679475Y-124756007D01*
X141687326Y-124753905D01*
X141688210Y-124757207D01*
X141741925Y-124751392D01*
X141752514Y-124754501D01*
X141752674Y-124753905D01*
X141760524Y-124756008D01*
X141760526Y-124756008D01*
X141760528Y-124756009D01*
X141870599Y-124770500D01*
X142069400Y-124770499D01*
X142069403Y-124770499D01*
X142179463Y-124756011D01*
X142179467Y-124756009D01*
X142179472Y-124756009D01*
X142316429Y-124699279D01*
X142434036Y-124609036D01*
X142524279Y-124491429D01*
X142581009Y-124354472D01*
X142595500Y-124244401D01*
X142595499Y-123669498D01*
X142615183Y-123602460D01*
X142667987Y-123556705D01*
X142719499Y-123545499D01*
X143294403Y-123545499D01*
X143404463Y-123531011D01*
X143404467Y-123531009D01*
X143404472Y-123531009D01*
X143541429Y-123474279D01*
X143659036Y-123384036D01*
X143749279Y-123266429D01*
X143806009Y-123129472D01*
X143820500Y-123019401D01*
X143820499Y-122820600D01*
X143820499Y-122820599D01*
X143820499Y-122820596D01*
X143806011Y-122710536D01*
X143803906Y-122702682D01*
X143807197Y-122701800D01*
X143801405Y-122648001D01*
X143804499Y-122637486D01*
X143803905Y-122637327D01*
X143806008Y-122629476D01*
X143806009Y-122629472D01*
X143820500Y-122519401D01*
X143820499Y-122320600D01*
X143806009Y-122210528D01*
X143806007Y-122210523D01*
X143803905Y-122202674D01*
X143807196Y-122201792D01*
X143801405Y-122148000D01*
X143804499Y-122137485D01*
X143803905Y-122137326D01*
X143806008Y-122129475D01*
X143806008Y-122129474D01*
X143806009Y-122129472D01*
X143820500Y-122019401D01*
X143820499Y-121820600D01*
X143820499Y-121820598D01*
X143820499Y-121820596D01*
X143806011Y-121710536D01*
X143803906Y-121702682D01*
X143807197Y-121701800D01*
X143801405Y-121648001D01*
X143804499Y-121637486D01*
X143803905Y-121637327D01*
X143806008Y-121629476D01*
X143806010Y-121629463D01*
X143820500Y-121519401D01*
X143820499Y-121320600D01*
X143806009Y-121210528D01*
X143806008Y-121210525D01*
X143803905Y-121202674D01*
X143807196Y-121201792D01*
X143801405Y-121148000D01*
X143804499Y-121137485D01*
X143803905Y-121137326D01*
X143806008Y-121129475D01*
X143806008Y-121129474D01*
X143806009Y-121129472D01*
X143820500Y-121019401D01*
X143820499Y-120820600D01*
X143820499Y-120820598D01*
X143820499Y-120820596D01*
X143806011Y-120710536D01*
X143806009Y-120710529D01*
X143806009Y-120710528D01*
X143749279Y-120573571D01*
X143659036Y-120455964D01*
X143541429Y-120365721D01*
X143541425Y-120365719D01*
X143404472Y-120308991D01*
X143404470Y-120308990D01*
X143294410Y-120294501D01*
X143294407Y-120294500D01*
X143294401Y-120294500D01*
X143294394Y-120294500D01*
X142719499Y-120294500D01*
X142652460Y-120274815D01*
X142606705Y-120222011D01*
X142595499Y-120170500D01*
X142595499Y-119595596D01*
X142581011Y-119485536D01*
X142581009Y-119485529D01*
X142581009Y-119485528D01*
X142524279Y-119348571D01*
X142434036Y-119230964D01*
X142316429Y-119140721D01*
X142316425Y-119140719D01*
X142179472Y-119083991D01*
X142179470Y-119083990D01*
X142069401Y-119069500D01*
X141870596Y-119069500D01*
X141760531Y-119083989D01*
X141752678Y-119086094D01*
X141751802Y-119082824D01*
X141697853Y-119088567D01*
X141687477Y-119085518D01*
X141687323Y-119086095D01*
X141679470Y-119083990D01*
X141569401Y-119069500D01*
X141370596Y-119069500D01*
X141260531Y-119083989D01*
X141252678Y-119086094D01*
X141251802Y-119082824D01*
X141197853Y-119088567D01*
X141187477Y-119085518D01*
X141187323Y-119086095D01*
X141179470Y-119083990D01*
X141069401Y-119069500D01*
X140870596Y-119069500D01*
X140760531Y-119083989D01*
X140752678Y-119086094D01*
X140751802Y-119082824D01*
X140697853Y-119088567D01*
X140687477Y-119085518D01*
X140687323Y-119086095D01*
X140679470Y-119083990D01*
X140569401Y-119069500D01*
X140370596Y-119069500D01*
X140260529Y-119083989D01*
X140252681Y-119086093D01*
X140251808Y-119082836D01*
X140197779Y-119088554D01*
X140187476Y-119085523D01*
X140187323Y-119086095D01*
X140179470Y-119083990D01*
X140069401Y-119069500D01*
X139870596Y-119069500D01*
X139760536Y-119083988D01*
X139760527Y-119083991D01*
X139623574Y-119140719D01*
X139505964Y-119230964D01*
X139415719Y-119348574D01*
X139358991Y-119485527D01*
X139358990Y-119485529D01*
X139346012Y-119584111D01*
X139344501Y-119595596D01*
X139344500Y-119595605D01*
X139344500Y-120170500D01*
X139324815Y-120237539D01*
X139272011Y-120283294D01*
X139220500Y-120294500D01*
X138645596Y-120294500D01*
X138535536Y-120308988D01*
X138535527Y-120308991D01*
X138398574Y-120365719D01*
X138280964Y-120455964D01*
X138190719Y-120573574D01*
X138133991Y-120710527D01*
X138133990Y-120710529D01*
X138119500Y-120820598D01*
X138119500Y-121019403D01*
X138133989Y-121129468D01*
X138136094Y-121137322D01*
X138132814Y-121138200D01*
X138138581Y-121192073D01*
X138135517Y-121202522D01*
X138136095Y-121202677D01*
X138133990Y-121210529D01*
X138119500Y-121320598D01*
X138119500Y-121519403D01*
X138133988Y-121629463D01*
X138136094Y-121637318D01*
X138132818Y-121638195D01*
X138138575Y-121692103D01*
X138135518Y-121702518D01*
X138136095Y-121702673D01*
X138133991Y-121710524D01*
X138119500Y-121820598D01*
X138119500Y-122019403D01*
X138133988Y-122129463D01*
X138136094Y-122137318D01*
X138132818Y-122138195D01*
X138138575Y-122192103D01*
X138135518Y-122202518D01*
X138136095Y-122202673D01*
X138133991Y-122210523D01*
X138122736Y-122296015D01*
X138094469Y-122359912D01*
X138036144Y-122398382D01*
X137966280Y-122399213D01*
X137907056Y-122362140D01*
X137900531Y-122354140D01*
X137817190Y-122242812D01*
X137817187Y-122242809D01*
X137702093Y-122156649D01*
X137702086Y-122156645D01*
X137567379Y-122106403D01*
X137567372Y-122106401D01*
X137507844Y-122100000D01*
X137460000Y-122100000D01*
X137460000Y-122916000D01*
X137440315Y-122983039D01*
X137387511Y-123028794D01*
X137336000Y-123040000D01*
X136560000Y-123040000D01*
X136560000Y-123127844D01*
X136566401Y-123187372D01*
X136566403Y-123187379D01*
X136616645Y-123322086D01*
X136616646Y-123322088D01*
X136693890Y-123425272D01*
X136718307Y-123490736D01*
X136703456Y-123559009D01*
X136693890Y-123573894D01*
X136616204Y-123677669D01*
X136616202Y-123677671D01*
X136565910Y-123812513D01*
X136565909Y-123812517D01*
X136559500Y-123872127D01*
X136559500Y-123872134D01*
X136559500Y-123872135D01*
X136559500Y-124447870D01*
X132160499Y-124447870D01*
X132160499Y-123562128D01*
X132154091Y-123502517D01*
X132143559Y-123474280D01*
X132103797Y-123367671D01*
X132103793Y-123367664D01*
X132017547Y-123252455D01*
X132017544Y-123252452D01*
X131902335Y-123166206D01*
X131902328Y-123166202D01*
X131767482Y-123115908D01*
X131767483Y-123115908D01*
X131707883Y-123109501D01*
X131707881Y-123109500D01*
X131707873Y-123109500D01*
X131707864Y-123109500D01*
X129912129Y-123109500D01*
X129912123Y-123109501D01*
X129852516Y-123115908D01*
X129717671Y-123166202D01*
X129717664Y-123166206D01*
X129602455Y-123252452D01*
X129602452Y-123252455D01*
X129516206Y-123367664D01*
X129516202Y-123367671D01*
X129465908Y-123502517D01*
X129460083Y-123556705D01*
X129459501Y-123562123D01*
X129459500Y-123562135D01*
X129459500Y-125357870D01*
X129459501Y-125357876D01*
X129465908Y-125417483D01*
X129516202Y-125552328D01*
X129516206Y-125552335D01*
X129602452Y-125667544D01*
X129602455Y-125667547D01*
X129717664Y-125753793D01*
X129717671Y-125753797D01*
X129849081Y-125802810D01*
X129905015Y-125844681D01*
X129929432Y-125910145D01*
X129914580Y-125978418D01*
X129893430Y-126006673D01*
X129771503Y-126128600D01*
X129635965Y-126322169D01*
X129635964Y-126322171D01*
X129536098Y-126536335D01*
X129536094Y-126536344D01*
X129474938Y-126764586D01*
X129474936Y-126764596D01*
X129454341Y-126999999D01*
X129454341Y-127000000D01*
X128337539Y-127000000D01*
X128296463Y-126513014D01*
X128288481Y-126370867D01*
X128272497Y-125801210D01*
X128272498Y-125658789D01*
X128277734Y-125472172D01*
X128288481Y-125089120D01*
X128289182Y-125076649D01*
X128296462Y-124946993D01*
X128344368Y-124379047D01*
X128360308Y-124237583D01*
X128439976Y-123673263D01*
X128463821Y-123532922D01*
X128575008Y-122973947D01*
X128606694Y-122835123D01*
X128657026Y-122640000D01*
X136560000Y-122640000D01*
X137060000Y-122640000D01*
X137060000Y-122100000D01*
X137012155Y-122100000D01*
X136952627Y-122106401D01*
X136952620Y-122106403D01*
X136817913Y-122156645D01*
X136817906Y-122156649D01*
X136702812Y-122242809D01*
X136702809Y-122242812D01*
X136616649Y-122357906D01*
X136616645Y-122357913D01*
X136566403Y-122492620D01*
X136566401Y-122492627D01*
X136560000Y-122552155D01*
X136560000Y-122640000D01*
X128657026Y-122640000D01*
X128749036Y-122283305D01*
X128770005Y-122210523D01*
X128788453Y-122146484D01*
X128961532Y-121603455D01*
X129008539Y-121469118D01*
X129211797Y-120936639D01*
X129266266Y-120805136D01*
X129499057Y-120284901D01*
X129554149Y-120170500D01*
X129560823Y-120156639D01*
X129822429Y-119650252D01*
X129891268Y-119525697D01*
X130180854Y-119034778D01*
X130256596Y-118914238D01*
X130573231Y-118440359D01*
X130655593Y-118324281D01*
X130998305Y-117868896D01*
X131087096Y-117757558D01*
X131175841Y-117652462D01*
X131454764Y-117322151D01*
X131549657Y-117215966D01*
X131941167Y-116801851D01*
X132041851Y-116701167D01*
X132288618Y-116467870D01*
X138089500Y-116467870D01*
X138089501Y-116467876D01*
X138095908Y-116527483D01*
X138146202Y-116662328D01*
X138146206Y-116662335D01*
X138232452Y-116777544D01*
X138232455Y-116777547D01*
X138347664Y-116863793D01*
X138347671Y-116863797D01*
X138482517Y-116914091D01*
X138482516Y-116914091D01*
X138489444Y-116914835D01*
X138542127Y-116920500D01*
X140337872Y-116920499D01*
X140397483Y-116914091D01*
X140532331Y-116863796D01*
X140647546Y-116777546D01*
X140733796Y-116662331D01*
X140782810Y-116530916D01*
X140824681Y-116474984D01*
X140890145Y-116450566D01*
X140958418Y-116465417D01*
X140986673Y-116486569D01*
X141108599Y-116608495D01*
X141205384Y-116676265D01*
X141302165Y-116744032D01*
X141302167Y-116744033D01*
X141302170Y-116744035D01*
X141516337Y-116843903D01*
X141744592Y-116905063D01*
X141921034Y-116920500D01*
X141979999Y-116925659D01*
X141980000Y-116925659D01*
X141980001Y-116925659D01*
X142038966Y-116920500D01*
X142215408Y-116905063D01*
X142443663Y-116843903D01*
X142657830Y-116744035D01*
X142851401Y-116608495D01*
X143018495Y-116441401D01*
X143154035Y-116247830D01*
X143253903Y-116033663D01*
X143315063Y-115805408D01*
X143335659Y-115570000D01*
X143315063Y-115334592D01*
X143253903Y-115106337D01*
X143154035Y-114892171D01*
X143018495Y-114698599D01*
X143018494Y-114698597D01*
X142851402Y-114531506D01*
X142851395Y-114531501D01*
X142657834Y-114395967D01*
X142657830Y-114395965D01*
X142657829Y-114395964D01*
X142443663Y-114296097D01*
X142443659Y-114296096D01*
X142443655Y-114296094D01*
X142215413Y-114234938D01*
X142215403Y-114234936D01*
X141980001Y-114214341D01*
X141979999Y-114214341D01*
X141744596Y-114234936D01*
X141744586Y-114234938D01*
X141516344Y-114296094D01*
X141516335Y-114296098D01*
X141302171Y-114395964D01*
X141302169Y-114395965D01*
X141108600Y-114531503D01*
X140986673Y-114653430D01*
X140925350Y-114686914D01*
X140855658Y-114681930D01*
X140799725Y-114640058D01*
X140782810Y-114609081D01*
X140733797Y-114477671D01*
X140733793Y-114477664D01*
X140647547Y-114362455D01*
X140647544Y-114362452D01*
X140532335Y-114276206D01*
X140532328Y-114276202D01*
X140397482Y-114225908D01*
X140397483Y-114225908D01*
X140337883Y-114219501D01*
X140337881Y-114219500D01*
X140337873Y-114219500D01*
X140337864Y-114219500D01*
X138542129Y-114219500D01*
X138542123Y-114219501D01*
X138482516Y-114225908D01*
X138347671Y-114276202D01*
X138347664Y-114276206D01*
X138232455Y-114362452D01*
X138232452Y-114362455D01*
X138146206Y-114477664D01*
X138146202Y-114477671D01*
X138095908Y-114612517D01*
X138089501Y-114672116D01*
X138089500Y-114672135D01*
X138089500Y-116467870D01*
X132288618Y-116467870D01*
X132455977Y-116309646D01*
X132562151Y-116214764D01*
X132997558Y-115847096D01*
X133049826Y-115805413D01*
X133108896Y-115758305D01*
X133564281Y-115415593D01*
X133680359Y-115333231D01*
X134154243Y-115016592D01*
X134274778Y-114940854D01*
X134765697Y-114651268D01*
X134890252Y-114582429D01*
X135396639Y-114320823D01*
X135524901Y-114259057D01*
X135578801Y-114234938D01*
X136045136Y-114026266D01*
X136176639Y-113971797D01*
X136709118Y-113768539D01*
X136843455Y-113721532D01*
X137386484Y-113548453D01*
X137523296Y-113509039D01*
X138075152Y-113366686D01*
X138213947Y-113335008D01*
X138772922Y-113223821D01*
X138913263Y-113199976D01*
X139477602Y-113120305D01*
X139619047Y-113104368D01*
X140186993Y-113056462D01*
X140329109Y-113048481D01*
X140898790Y-113032498D01*
X141041210Y-113032498D01*
X141610890Y-113048481D01*
G37*
%TD.AperFunction*%
%TD*%
M02*
