M48
; DRILL file {KiCad 7.0.6} date Sun Aug  6 17:13:19 2023
; FORMAT={-:-/ absolute / inch / decimal}
; #@! TF.CreationDate,2023-08-06T17:13:19+10:00
; #@! TF.GenerationSoftware,Kicad,Pcbnew,7.0.6
; #@! TF.FileFunction,Plated,1,2,PTH
FMAT,2
INCH
; #@! TA.AperFunction,Plated,PTH,ComponentDrill
T1C0.0276
; #@! TA.AperFunction,Plated,PTH,ComponentDrill
T2C0.0394
; #@! TA.AperFunction,Plated,PTH,ComponentDrill
T3C0.0590
%
G90
G05
T2
X5.15Y-3.85
X5.15Y-3.95
X5.15Y-4.9
X5.15Y-5.0
X5.4898Y-4.55
X5.5Y-3.5
X5.5898Y-4.55
X5.6Y-3.5
X5.95Y-3.85
X5.95Y-3.95
X5.95Y-4.9
X5.95Y-5.0
T3
X5.4508Y-3.7
X5.7008Y-3.8
T1
G00X5.3673Y-5.1608
M15
G01X5.3673Y-5.2002
M16
G05
G00X5.3673Y-5.3313
M15
G01X5.3673Y-5.3589
M16
G05
G00X5.7075Y-5.1608
M15
G01X5.7075Y-5.2002
M16
G05
G00X5.7075Y-5.3313
M15
G01X5.7075Y-5.3589
M16
G05
T0
M30
