%TF.GenerationSoftware,KiCad,Pcbnew,7.0.6*%
%TF.CreationDate,2023-08-06T17:13:19+10:00*%
%TF.ProjectId,single-key-keyboard,73696e67-6c65-42d6-9b65-792d6b657962,rev?*%
%TF.SameCoordinates,Original*%
%TF.FileFunction,Paste,Top*%
%TF.FilePolarity,Positive*%
%FSLAX46Y46*%
G04 Gerber Fmt 4.6, Leading zero omitted, Abs format (unit mm)*
G04 Created by KiCad (PCBNEW 7.0.6) date 2023-08-06 17:13:19*
%MOMM*%
%LPD*%
G01*
G04 APERTURE LIST*
G04 Aperture macros list*
%AMRoundRect*
0 Rectangle with rounded corners*
0 $1 Rounding radius*
0 $2 $3 $4 $5 $6 $7 $8 $9 X,Y pos of 4 corners*
0 Add a 4 corners polygon primitive as box body*
4,1,4,$2,$3,$4,$5,$6,$7,$8,$9,$2,$3,0*
0 Add four circle primitives for the rounded corners*
1,1,$1+$1,$2,$3*
1,1,$1+$1,$4,$5*
1,1,$1+$1,$6,$7*
1,1,$1+$1,$8,$9*
0 Add four rect primitives between the rounded corners*
20,1,$1+$1,$2,$3,$4,$5,0*
20,1,$1+$1,$4,$5,$6,$7,0*
20,1,$1+$1,$6,$7,$8,$9,0*
20,1,$1+$1,$8,$9,$2,$3,0*%
G04 Aperture macros list end*
%ADD10R,2.550000X2.500000*%
%ADD11O,1.200000X2.000000*%
%ADD12O,1.200000X1.800000*%
%ADD13R,0.300000X1.300000*%
%ADD14RoundRect,0.250000X-0.275000X-0.275000X0.275000X-0.275000X0.275000X0.275000X-0.275000X0.275000X0*%
%ADD15RoundRect,0.062500X-0.362500X-0.062500X0.362500X-0.062500X0.362500X0.062500X-0.362500X0.062500X0*%
%ADD16RoundRect,0.062500X-0.062500X-0.362500X0.062500X-0.362500X0.062500X0.362500X-0.062500X0.362500X0*%
%ADD17RoundRect,0.135000X0.135000X0.185000X-0.135000X0.185000X-0.135000X-0.185000X0.135000X-0.185000X0*%
%ADD18R,0.400000X0.480000*%
%ADD19RoundRect,0.112500X-0.112500X0.187500X-0.112500X-0.187500X0.112500X-0.187500X0.112500X0.187500X0*%
G04 APERTURE END LIST*
%TO.C,P1*%
G36*
X139550000Y-131585000D02*
G01*
X139250000Y-131585000D01*
X139250000Y-130285000D01*
X139550000Y-130285000D01*
X139550000Y-131585000D01*
G37*
G36*
X140550000Y-131585000D02*
G01*
X140250000Y-131585000D01*
X140250000Y-130285000D01*
X140550000Y-130285000D01*
X140550000Y-131585000D01*
G37*
G36*
X145015000Y-134867000D02*
G01*
X145045000Y-134870000D01*
X145074000Y-134874000D01*
X145104000Y-134880000D01*
X145133000Y-134887000D01*
X145161000Y-134896000D01*
X145189000Y-134907000D01*
X145217000Y-134918000D01*
X145244000Y-134931000D01*
X145270000Y-134945000D01*
X145296000Y-134961000D01*
X145320000Y-134978000D01*
X145344000Y-134996000D01*
X145367000Y-135015000D01*
X145389000Y-135036000D01*
X145410000Y-135057000D01*
X145430000Y-135079000D01*
X145448000Y-135103000D01*
X145466000Y-135127000D01*
X145482000Y-135152000D01*
X145497000Y-135178000D01*
X145511000Y-135205000D01*
X145523000Y-135232000D01*
X145534000Y-135260000D01*
X145543000Y-135288000D01*
X145551000Y-135317000D01*
X145558000Y-135346000D01*
X145563000Y-135376000D01*
X145567000Y-135405000D01*
X145569000Y-135435000D01*
X145570000Y-135465000D01*
X145570000Y-136065000D01*
X145569000Y-136095000D01*
X145567000Y-136125000D01*
X145563000Y-136154000D01*
X145558000Y-136184000D01*
X145551000Y-136213000D01*
X145543000Y-136242000D01*
X145534000Y-136270000D01*
X145523000Y-136298000D01*
X145511000Y-136325000D01*
X145497000Y-136352000D01*
X145482000Y-136378000D01*
X145466000Y-136403000D01*
X145448000Y-136427000D01*
X145430000Y-136451000D01*
X145410000Y-136473000D01*
X145389000Y-136495000D01*
X145367000Y-136515000D01*
X145344000Y-136534000D01*
X145320000Y-136552000D01*
X145296000Y-136569000D01*
X145270000Y-136585000D01*
X145244000Y-136599000D01*
X145217000Y-136612000D01*
X145189000Y-136624000D01*
X145161000Y-136634000D01*
X145133000Y-136643000D01*
X145104000Y-136650000D01*
X145074000Y-136656000D01*
X145045000Y-136660000D01*
X145015000Y-136663000D01*
X144985000Y-136665000D01*
X144955000Y-136665000D01*
X144925000Y-136663000D01*
X144895000Y-136660000D01*
X144866000Y-136656000D01*
X144837000Y-136650000D01*
X144808000Y-136643000D01*
X144779000Y-136634000D01*
X144751000Y-136624000D01*
X144723000Y-136612000D01*
X144696000Y-136599000D01*
X144670000Y-136585000D01*
X144645000Y-136569000D01*
X144620000Y-136552000D01*
X144596000Y-136534000D01*
X144573000Y-136515000D01*
X144551000Y-136495000D01*
X144530000Y-136473000D01*
X144510000Y-136451000D01*
X144492000Y-136427000D01*
X144474000Y-136403000D01*
X144458000Y-136378000D01*
X144443000Y-136352000D01*
X144429000Y-136325000D01*
X144417000Y-136298000D01*
X144406000Y-136270000D01*
X144397000Y-136242000D01*
X144389000Y-136213000D01*
X144382000Y-136184000D01*
X144377000Y-136154000D01*
X144373000Y-136125000D01*
X144371000Y-136095000D01*
X144370000Y-136065000D01*
X144370000Y-135465000D01*
X144371000Y-135435000D01*
X144373000Y-135405000D01*
X144377000Y-135376000D01*
X144382000Y-135346000D01*
X144389000Y-135317000D01*
X144397000Y-135288000D01*
X144406000Y-135260000D01*
X144417000Y-135232000D01*
X144429000Y-135205000D01*
X144443000Y-135178000D01*
X144458000Y-135152000D01*
X144474000Y-135127000D01*
X144492000Y-135103000D01*
X144510000Y-135079000D01*
X144530000Y-135057000D01*
X144551000Y-135036000D01*
X144573000Y-135015000D01*
X144596000Y-134996000D01*
X144620000Y-134978000D01*
X144645000Y-134961000D01*
X144670000Y-134945000D01*
X144696000Y-134931000D01*
X144723000Y-134918000D01*
X144751000Y-134907000D01*
X144779000Y-134896000D01*
X144808000Y-134887000D01*
X144837000Y-134880000D01*
X144866000Y-134874000D01*
X144895000Y-134870000D01*
X144925000Y-134867000D01*
X144955000Y-134865000D01*
X144985000Y-134865000D01*
X145015000Y-134867000D01*
G37*
G36*
X143350000Y-131585000D02*
G01*
X143050000Y-131585000D01*
X142750000Y-131585000D01*
X142750000Y-130285000D01*
X143050000Y-130285000D01*
X143350000Y-130285000D01*
X143350000Y-131585000D01*
G37*
G36*
X141550000Y-131585000D02*
G01*
X141250000Y-131585000D01*
X141250000Y-130285000D01*
X141550000Y-130285000D01*
X141550000Y-131585000D01*
G37*
G36*
X140050000Y-131585000D02*
G01*
X139750000Y-131585000D01*
X139750000Y-130285000D01*
X140050000Y-130285000D01*
X140050000Y-131585000D01*
G37*
G36*
X138550000Y-131585000D02*
G01*
X138250000Y-131585000D01*
X137950000Y-131585000D01*
X137950000Y-130285000D01*
X138250000Y-130285000D01*
X138550000Y-130285000D01*
X138550000Y-131585000D01*
G37*
G36*
X139050000Y-131585000D02*
G01*
X138750000Y-131585000D01*
X138750000Y-130285000D01*
X139050000Y-130285000D01*
X139050000Y-131585000D01*
G37*
G36*
X136375000Y-134867000D02*
G01*
X136405000Y-134870000D01*
X136434000Y-134874000D01*
X136463000Y-134880000D01*
X136492000Y-134887000D01*
X136521000Y-134896000D01*
X136549000Y-134907000D01*
X136577000Y-134918000D01*
X136604000Y-134931000D01*
X136630000Y-134945000D01*
X136655000Y-134961000D01*
X136680000Y-134978000D01*
X136704000Y-134996000D01*
X136727000Y-135015000D01*
X136749000Y-135036000D01*
X136770000Y-135057000D01*
X136790000Y-135079000D01*
X136808000Y-135103000D01*
X136826000Y-135127000D01*
X136842000Y-135152000D01*
X136857000Y-135178000D01*
X136871000Y-135205000D01*
X136883000Y-135232000D01*
X136894000Y-135260000D01*
X136903000Y-135288000D01*
X136911000Y-135317000D01*
X136918000Y-135346000D01*
X136923000Y-135376000D01*
X136927000Y-135405000D01*
X136929000Y-135435000D01*
X136930000Y-135465000D01*
X136930000Y-136065000D01*
X136929000Y-136095000D01*
X136927000Y-136125000D01*
X136923000Y-136154000D01*
X136918000Y-136184000D01*
X136911000Y-136213000D01*
X136903000Y-136242000D01*
X136894000Y-136270000D01*
X136883000Y-136298000D01*
X136871000Y-136325000D01*
X136857000Y-136352000D01*
X136842000Y-136378000D01*
X136826000Y-136403000D01*
X136808000Y-136427000D01*
X136790000Y-136451000D01*
X136770000Y-136473000D01*
X136749000Y-136495000D01*
X136727000Y-136515000D01*
X136704000Y-136534000D01*
X136680000Y-136552000D01*
X136655000Y-136569000D01*
X136630000Y-136585000D01*
X136604000Y-136599000D01*
X136577000Y-136612000D01*
X136549000Y-136624000D01*
X136521000Y-136634000D01*
X136492000Y-136643000D01*
X136463000Y-136650000D01*
X136434000Y-136656000D01*
X136405000Y-136660000D01*
X136375000Y-136663000D01*
X136345000Y-136665000D01*
X136315000Y-136665000D01*
X136285000Y-136663000D01*
X136255000Y-136660000D01*
X136226000Y-136656000D01*
X136196000Y-136650000D01*
X136167000Y-136643000D01*
X136139000Y-136634000D01*
X136111000Y-136624000D01*
X136083000Y-136612000D01*
X136056000Y-136599000D01*
X136030000Y-136585000D01*
X136004000Y-136569000D01*
X135980000Y-136552000D01*
X135956000Y-136534000D01*
X135933000Y-136515000D01*
X135911000Y-136495000D01*
X135890000Y-136473000D01*
X135870000Y-136451000D01*
X135852000Y-136427000D01*
X135834000Y-136403000D01*
X135818000Y-136378000D01*
X135803000Y-136352000D01*
X135789000Y-136325000D01*
X135777000Y-136298000D01*
X135766000Y-136270000D01*
X135757000Y-136242000D01*
X135749000Y-136213000D01*
X135742000Y-136184000D01*
X135737000Y-136154000D01*
X135733000Y-136125000D01*
X135731000Y-136095000D01*
X135730000Y-136065000D01*
X135730000Y-135465000D01*
X135731000Y-135435000D01*
X135733000Y-135405000D01*
X135737000Y-135376000D01*
X135742000Y-135346000D01*
X135749000Y-135317000D01*
X135757000Y-135288000D01*
X135766000Y-135260000D01*
X135777000Y-135232000D01*
X135789000Y-135205000D01*
X135803000Y-135178000D01*
X135818000Y-135152000D01*
X135834000Y-135127000D01*
X135852000Y-135103000D01*
X135870000Y-135079000D01*
X135890000Y-135057000D01*
X135911000Y-135036000D01*
X135933000Y-135015000D01*
X135956000Y-134996000D01*
X135980000Y-134978000D01*
X136004000Y-134961000D01*
X136030000Y-134945000D01*
X136056000Y-134931000D01*
X136083000Y-134918000D01*
X136111000Y-134907000D01*
X136139000Y-134896000D01*
X136167000Y-134887000D01*
X136196000Y-134880000D01*
X136226000Y-134874000D01*
X136255000Y-134870000D01*
X136285000Y-134867000D01*
X136315000Y-134865000D01*
X136345000Y-134865000D01*
X136375000Y-134867000D01*
G37*
G36*
X141050000Y-131585000D02*
G01*
X140750000Y-131585000D01*
X140750000Y-130285000D01*
X141050000Y-130285000D01*
X141050000Y-131585000D01*
G37*
G36*
X142550000Y-131585000D02*
G01*
X142250000Y-131585000D01*
X142250000Y-130285000D01*
X142550000Y-130285000D01*
X142550000Y-131585000D01*
G37*
G36*
X137750000Y-131585000D02*
G01*
X137450000Y-131585000D01*
X137150000Y-131585000D01*
X137150000Y-130285000D01*
X137450000Y-130285000D01*
X137750000Y-130285000D01*
X137750000Y-131585000D01*
G37*
G36*
X142050000Y-131585000D02*
G01*
X141750000Y-131585000D01*
X141750000Y-130285000D01*
X142050000Y-130285000D01*
X142050000Y-131585000D01*
G37*
G36*
X144150000Y-131585000D02*
G01*
X143850000Y-131585000D01*
X143550000Y-131585000D01*
X143550000Y-130285000D01*
X143850000Y-130285000D01*
X144150000Y-130285000D01*
X144150000Y-131585000D01*
G37*
G36*
X145015000Y-130587000D02*
G01*
X145045000Y-130590000D01*
X145074000Y-130594000D01*
X145104000Y-130600000D01*
X145133000Y-130607000D01*
X145161000Y-130616000D01*
X145189000Y-130626000D01*
X145217000Y-130638000D01*
X145244000Y-130651000D01*
X145270000Y-130665000D01*
X145296000Y-130681000D01*
X145320000Y-130698000D01*
X145344000Y-130716000D01*
X145367000Y-130735000D01*
X145389000Y-130755000D01*
X145410000Y-130777000D01*
X145430000Y-130799000D01*
X145448000Y-130823000D01*
X145466000Y-130847000D01*
X145482000Y-130872000D01*
X145497000Y-130898000D01*
X145511000Y-130925000D01*
X145523000Y-130952000D01*
X145534000Y-130980000D01*
X145543000Y-131008000D01*
X145551000Y-131037000D01*
X145558000Y-131066000D01*
X145563000Y-131096000D01*
X145567000Y-131125000D01*
X145569000Y-131155000D01*
X145570000Y-131185000D01*
X145570000Y-131985000D01*
X145569000Y-132015000D01*
X145567000Y-132045000D01*
X145563000Y-132074000D01*
X145558000Y-132104000D01*
X145551000Y-132133000D01*
X145543000Y-132162000D01*
X145534000Y-132190000D01*
X145523000Y-132218000D01*
X145511000Y-132245000D01*
X145497000Y-132272000D01*
X145482000Y-132298000D01*
X145466000Y-132323000D01*
X145448000Y-132347000D01*
X145430000Y-132371000D01*
X145410000Y-132393000D01*
X145389000Y-132414000D01*
X145367000Y-132435000D01*
X145344000Y-132454000D01*
X145320000Y-132472000D01*
X145296000Y-132489000D01*
X145270000Y-132505000D01*
X145244000Y-132519000D01*
X145217000Y-132532000D01*
X145189000Y-132543000D01*
X145161000Y-132554000D01*
X145133000Y-132563000D01*
X145104000Y-132570000D01*
X145074000Y-132576000D01*
X145045000Y-132580000D01*
X145015000Y-132583000D01*
X144985000Y-132585000D01*
X144955000Y-132585000D01*
X144925000Y-132583000D01*
X144895000Y-132580000D01*
X144866000Y-132576000D01*
X144837000Y-132570000D01*
X144808000Y-132563000D01*
X144779000Y-132554000D01*
X144751000Y-132543000D01*
X144723000Y-132532000D01*
X144696000Y-132519000D01*
X144670000Y-132505000D01*
X144645000Y-132489000D01*
X144620000Y-132472000D01*
X144596000Y-132454000D01*
X144573000Y-132435000D01*
X144551000Y-132414000D01*
X144530000Y-132393000D01*
X144510000Y-132371000D01*
X144492000Y-132347000D01*
X144474000Y-132323000D01*
X144458000Y-132298000D01*
X144443000Y-132272000D01*
X144429000Y-132245000D01*
X144417000Y-132218000D01*
X144406000Y-132190000D01*
X144397000Y-132162000D01*
X144389000Y-132133000D01*
X144382000Y-132104000D01*
X144377000Y-132074000D01*
X144373000Y-132045000D01*
X144371000Y-132015000D01*
X144370000Y-131985000D01*
X144370000Y-131185000D01*
X144371000Y-131155000D01*
X144373000Y-131125000D01*
X144377000Y-131096000D01*
X144382000Y-131066000D01*
X144389000Y-131037000D01*
X144397000Y-131008000D01*
X144406000Y-130980000D01*
X144417000Y-130952000D01*
X144429000Y-130925000D01*
X144443000Y-130898000D01*
X144458000Y-130872000D01*
X144474000Y-130847000D01*
X144492000Y-130823000D01*
X144510000Y-130799000D01*
X144530000Y-130777000D01*
X144551000Y-130755000D01*
X144573000Y-130735000D01*
X144596000Y-130716000D01*
X144620000Y-130698000D01*
X144645000Y-130681000D01*
X144670000Y-130665000D01*
X144696000Y-130651000D01*
X144723000Y-130638000D01*
X144751000Y-130626000D01*
X144779000Y-130616000D01*
X144808000Y-130607000D01*
X144837000Y-130600000D01*
X144866000Y-130594000D01*
X144895000Y-130590000D01*
X144925000Y-130587000D01*
X144955000Y-130585000D01*
X144985000Y-130585000D01*
X145015000Y-130587000D01*
G37*
G36*
X136375000Y-130587000D02*
G01*
X136405000Y-130590000D01*
X136434000Y-130594000D01*
X136463000Y-130600000D01*
X136492000Y-130607000D01*
X136521000Y-130616000D01*
X136549000Y-130626000D01*
X136577000Y-130638000D01*
X136604000Y-130651000D01*
X136630000Y-130665000D01*
X136655000Y-130681000D01*
X136680000Y-130698000D01*
X136704000Y-130716000D01*
X136727000Y-130735000D01*
X136749000Y-130755000D01*
X136770000Y-130777000D01*
X136790000Y-130799000D01*
X136808000Y-130823000D01*
X136826000Y-130847000D01*
X136842000Y-130872000D01*
X136857000Y-130898000D01*
X136871000Y-130925000D01*
X136883000Y-130952000D01*
X136894000Y-130980000D01*
X136903000Y-131008000D01*
X136911000Y-131037000D01*
X136918000Y-131066000D01*
X136923000Y-131096000D01*
X136927000Y-131125000D01*
X136929000Y-131155000D01*
X136930000Y-131185000D01*
X136930000Y-131985000D01*
X136929000Y-132015000D01*
X136927000Y-132045000D01*
X136923000Y-132074000D01*
X136918000Y-132104000D01*
X136911000Y-132133000D01*
X136903000Y-132162000D01*
X136894000Y-132190000D01*
X136883000Y-132218000D01*
X136871000Y-132245000D01*
X136857000Y-132272000D01*
X136842000Y-132298000D01*
X136826000Y-132323000D01*
X136808000Y-132347000D01*
X136790000Y-132371000D01*
X136770000Y-132393000D01*
X136749000Y-132414000D01*
X136727000Y-132435000D01*
X136704000Y-132454000D01*
X136680000Y-132472000D01*
X136655000Y-132489000D01*
X136630000Y-132505000D01*
X136604000Y-132519000D01*
X136577000Y-132532000D01*
X136549000Y-132543000D01*
X136521000Y-132554000D01*
X136492000Y-132563000D01*
X136463000Y-132570000D01*
X136434000Y-132576000D01*
X136405000Y-132580000D01*
X136375000Y-132583000D01*
X136345000Y-132585000D01*
X136315000Y-132585000D01*
X136285000Y-132583000D01*
X136255000Y-132580000D01*
X136226000Y-132576000D01*
X136196000Y-132570000D01*
X136167000Y-132563000D01*
X136139000Y-132554000D01*
X136111000Y-132543000D01*
X136083000Y-132532000D01*
X136056000Y-132519000D01*
X136030000Y-132505000D01*
X136004000Y-132489000D01*
X135980000Y-132472000D01*
X135956000Y-132454000D01*
X135933000Y-132435000D01*
X135911000Y-132414000D01*
X135890000Y-132393000D01*
X135870000Y-132371000D01*
X135852000Y-132347000D01*
X135834000Y-132323000D01*
X135818000Y-132298000D01*
X135803000Y-132272000D01*
X135789000Y-132245000D01*
X135777000Y-132218000D01*
X135766000Y-132190000D01*
X135757000Y-132162000D01*
X135749000Y-132133000D01*
X135742000Y-132104000D01*
X135737000Y-132074000D01*
X135733000Y-132045000D01*
X135731000Y-132015000D01*
X135730000Y-131985000D01*
X135730000Y-131185000D01*
X135731000Y-131155000D01*
X135733000Y-131125000D01*
X135737000Y-131096000D01*
X135742000Y-131066000D01*
X135749000Y-131037000D01*
X135757000Y-131008000D01*
X135766000Y-130980000D01*
X135777000Y-130952000D01*
X135789000Y-130925000D01*
X135803000Y-130898000D01*
X135818000Y-130872000D01*
X135834000Y-130847000D01*
X135852000Y-130823000D01*
X135870000Y-130799000D01*
X135890000Y-130777000D01*
X135911000Y-130755000D01*
X135933000Y-130735000D01*
X135956000Y-130716000D01*
X135980000Y-130698000D01*
X136004000Y-130681000D01*
X136030000Y-130665000D01*
X136056000Y-130651000D01*
X136083000Y-130638000D01*
X136111000Y-130626000D01*
X136139000Y-130616000D01*
X136167000Y-130607000D01*
X136196000Y-130600000D01*
X136226000Y-130594000D01*
X136255000Y-130590000D01*
X136285000Y-130587000D01*
X136315000Y-130585000D01*
X136345000Y-130585000D01*
X136375000Y-130587000D01*
G37*
%TD*%
D10*
%TO.C,SW1*%
X147280000Y-104140000D03*
X133430000Y-101600000D03*
%TD*%
D11*
%TO.C,P1*%
X136330000Y-131585000D03*
X144970000Y-131585000D03*
D12*
X136330000Y-135765000D03*
X144970000Y-135765000D03*
D13*
X137300000Y-130935000D03*
X138100000Y-130935000D03*
X139400000Y-130935000D03*
X140400000Y-130935000D03*
X140900000Y-130935000D03*
X141900000Y-130935000D03*
X143200000Y-130935000D03*
X144000000Y-130935000D03*
X143700000Y-130935000D03*
X142900000Y-130935000D03*
X142400000Y-130935000D03*
X141400000Y-130935000D03*
X139900000Y-130935000D03*
X138900000Y-130935000D03*
X138400000Y-130935000D03*
X137600000Y-130935000D03*
%TD*%
D14*
%TO.C,U1*%
X141620000Y-122570000D03*
X140320000Y-121270000D03*
X141620000Y-121270000D03*
X140320000Y-122570000D03*
D15*
X139045000Y-120920000D03*
X139045000Y-121420000D03*
X139045000Y-121920000D03*
X139045000Y-122420000D03*
X139045000Y-122920000D03*
D16*
X139970000Y-123845000D03*
X140470000Y-123845000D03*
X140970000Y-123845000D03*
X141470000Y-123845000D03*
X141970000Y-123845000D03*
D15*
X142895000Y-122920000D03*
X142895000Y-122420000D03*
X142895000Y-121920000D03*
X142895000Y-121420000D03*
X142895000Y-120920000D03*
D16*
X141970000Y-119995000D03*
X141470000Y-119995000D03*
X140970000Y-119995000D03*
X140470000Y-119995000D03*
X139970000Y-119995000D03*
%TD*%
D17*
%TO.C,R2*%
X143910000Y-126300000D03*
X142890000Y-126300000D03*
%TD*%
%TO.C,R1*%
X143890000Y-127350000D03*
X142870000Y-127350000D03*
%TD*%
D18*
%TO.C,D4*%
X137330000Y-125860000D03*
X137330000Y-127180000D03*
%TD*%
%TO.C,D3*%
X141340000Y-125760000D03*
X141340000Y-127080000D03*
%TD*%
D19*
%TO.C,D2*%
X139290000Y-125280000D03*
X139290000Y-127380000D03*
%TD*%
D18*
%TO.C,D1*%
X137260000Y-122840000D03*
X137260000Y-124160000D03*
%TD*%
M02*
